<svg width="16" height="16" viewBox="0 0 16 16" fill="none" xmlns="http://www.w3.org/2000/svg">
<g clip-path="url(#clip0_124_2)">
<path d="M4.15674 11.843C4.15674 13.9207 5.80518 15.6129 7.86523 15.6836C7.89233 15.6842 7.91931 15.6846 7.94678 15.6846C7.96362 15.6848 7.98071 15.6848 7.99756 15.6848C12.2422 15.6848 15.6829 12.2441 15.6829 7.99988C15.6829 3.75562 12.2422 0.314941 7.99756 0.314941C7.98071 0.314941 7.96362 0.314941 7.94678 0.315186H7.94019C10.0122 0.372925 11.6738 2.07056 11.6738 4.15674C11.6738 5.21765 11.244 6.17822 10.549 6.87366C9.85449 7.56836 8.8949 7.99854 7.83496 7.99988H7.99561C5.87512 8.00183 4.15674 9.7218 4.15674 11.843Z" fill="#FFBD42"/>
<path d="M0.313232 7.99805C0.313232 10.7499 1.83801 13.3729 4.25037 14.7092C4.25171 14.71 4.25269 14.7106 4.25403 14.7113C5.35791 15.3245 6.60156 15.661 7.86499 15.6818C6.29614 15.6281 4.88245 14.5848 4.3678 13.1017C3.84766 11.6027 4.32666 9.89526 5.54626 8.88269C6.2312 8.31409 7.1051 7.9989 7.99524 7.99817H7.83459C9.54773 7.99597 11.0907 6.81592 11.5398 5.16235C11.9403 3.6875 11.4056 2.07874 10.2065 1.13416C9.56177 0.626343 8.76025 0.336304 7.93982 0.313477C6.65125 0.322144 5.37976 0.659668 4.25403 1.28503C4.25269 1.28564 4.25171 1.28638 4.25037 1.28699C1.83801 2.62329 0.313232 5.24634 0.313232 7.99805Z" fill="#0A2C31"/>
<path d="M9.58374 3.81042C9.58374 4.63208 8.9176 5.29822 8.09595 5.29822C7.27441 5.29822 6.60828 4.63208 6.60828 3.81042C6.60828 2.98877 7.27441 2.32275 8.09595 2.32275C8.9176 2.32275 9.58374 2.98877 9.58374 3.81042Z" fill="#FFBD42"/>
<path d="M9.58374 11.7937C9.58374 12.6154 8.9176 13.2814 8.09595 13.2814C7.27441 13.2814 6.60828 12.6154 6.60828 11.7937C6.60828 10.972 7.27441 10.3059 8.09595 10.3059C8.9176 10.3059 9.58374 10.972 9.58374 11.7937Z" fill="#0A2C31"/>
<path d="M13.6548 2.34314C12.1437 0.832153 10.1345 0 7.99756 0C7.97974 0 7.96167 0 7.94373 0.000366213H7.94019C7.94006 0.000366213 7.93994 0.000366213 7.93982 0.000366213C7.9397 0.000366213 7.93958 0.000366213 7.93958 0.000366213C6.60449 0.00927734 5.27808 0.358765 4.10364 1.01111C4.10327 1.01123 4.10303 1.01135 4.10278 1.01147C3.95349 1.09192 3.89404 1.27698 3.97046 1.42969C4.04834 1.58533 4.23755 1.64844 4.39307 1.57056C4.39807 1.56812 4.40259 1.56567 4.40686 1.56323C4.40759 1.56299 4.4082 1.56262 4.40881 1.56226C5.48926 0.962036 6.70874 0.639893 7.93616 0.630371C7.9408 0.630493 7.94543 0.630859 7.95007 0.630981C7.98853 0.632202 8.02698 0.634155 8.06531 0.636719C8.07214 0.637085 8.07898 0.637573 8.08582 0.638062C8.68909 0.681641 9.2782 0.882935 9.7821 1.21631C9.78662 1.21936 9.79114 1.22241 9.79553 1.22546C9.82263 1.24353 9.84937 1.26233 9.87585 1.28113C9.89954 1.2981 9.9231 1.31531 9.94641 1.33276C9.95764 1.34119 9.96887 1.34961 9.97998 1.35815C10.0449 1.4082 10.1084 1.46069 10.1702 1.5155C10.171 1.51624 10.1719 1.51697 10.1727 1.51782C10.1935 1.53625 10.214 1.55493 10.2344 1.57385C10.2559 1.59412 10.2772 1.61426 10.2982 1.63501C10.3053 1.64197 10.3124 1.64917 10.3193 1.65613C11.0471 2.38635 11.4246 3.41992 11.3473 4.44238C11.3472 4.44312 11.3472 4.44385 11.347 4.44458C11.3446 4.47717 11.3413 4.50989 11.3379 4.54248C11.3361 4.55908 11.3344 4.57556 11.3324 4.59204C11.3318 4.59717 11.3309 4.60229 11.3303 4.60742C11.3079 4.78528 11.2719 4.95996 11.2233 5.13049C11.2168 5.15271 11.2104 5.17505 11.2036 5.19714C11.1996 5.21033 11.1953 5.22351 11.191 5.23669C10.9734 5.9082 10.5449 6.51245 9.97156 6.95117C9.3938 7.39331 8.69214 7.6499 7.98132 7.68164C7.97864 7.68176 7.97595 7.68176 7.97339 7.68188C7.92834 7.68372 7.88318 7.68481 7.83813 7.68494C7.83691 7.68494 7.83569 7.68494 7.83459 7.68506C7.81348 7.68506 7.79297 7.68713 7.77307 7.69104C7.15027 7.72461 6.56348 7.89624 6.0426 8.17542C6.03491 8.17944 6.02734 8.18372 6.01978 8.18787C5.98523 8.20654 5.95093 8.22583 5.91699 8.24548C5.8938 8.25903 5.87073 8.27283 5.84766 8.28674C5.82959 8.29785 5.8114 8.30896 5.79346 8.32019C5.63831 8.41736 5.48877 8.52441 5.34692 8.64221C5.20239 8.76221 5.06812 8.89136 4.94324 9.02759C4.93286 9.03882 4.92249 9.04993 4.91235 9.06128C4.89844 9.07666 4.88464 9.09216 4.87097 9.10779C4.23059 9.8396 3.8418 10.797 3.8418 11.8431C3.8418 12.9286 4.25745 13.9556 5.01221 14.7351C5.01367 14.7366 5.01501 14.738 5.01648 14.7395C4.80981 14.6483 4.60693 14.5477 4.40881 14.4377C4.40796 14.4373 4.40698 14.4366 4.40601 14.4362C4.4054 14.4359 4.40479 14.4355 4.4043 14.4352C3.27283 13.8083 2.3208 12.8719 1.651 11.7273C0.983154 10.5859 0.630127 9.29712 0.630127 8C0.630127 7.09961 0.797852 6.20984 1.12854 5.35571C1.45508 4.51221 1.92456 3.7439 2.52368 3.07214C2.63953 2.94226 2.62817 2.74316 2.49829 2.62744C2.36853 2.5116 2.16931 2.52295 2.05359 2.65283C1.40381 3.3811 0.894897 4.21399 0.541016 5.12817C0.182007 6.05518 0 7.02148 0 8C0 9.40881 0.382812 10.8077 1.10706 12.0455C1.83411 13.288 2.8689 14.3051 4.09961 14.9867C4.10046 14.9872 4.10132 14.9877 4.10217 14.9882C4.10278 14.9885 4.10327 14.9888 4.10388 14.9891C5.25269 15.6271 6.5498 15.976 7.85535 15.9985H7.85754C7.88623 15.9993 7.91492 15.9996 7.94385 15.9996C7.96167 16 7.97974 16 7.99756 16C10.1345 16 12.1437 15.1678 13.6547 13.6569C15.1658 12.1459 15.9979 10.137 15.9979 8C15.9979 5.86316 15.1658 3.85413 13.6548 2.34314ZM13.2092 13.2113C11.8171 14.6034 9.96631 15.37 7.99756 15.37C7.98279 15.37 7.96765 15.37 7.95276 15.3698C7.92651 15.369 7.90051 15.3694 7.87769 15.3689H7.87756C7.83362 15.3673 7.78979 15.365 7.74609 15.3617C7.74402 15.3616 7.74194 15.3615 7.73987 15.3613C6.35034 15.2582 5.12659 14.3239 4.66724 13.0002C4.43335 12.3262 4.41345 11.5986 4.60986 10.8965C4.75623 10.3732 5.0127 9.8999 5.36133 9.50391C5.36548 9.49927 5.36963 9.49463 5.37378 9.48999C5.3949 9.46606 5.41675 9.44275 5.4386 9.41956C5.45837 9.39856 5.47839 9.37793 5.49866 9.35754C5.5022 9.354 5.50574 9.35046 5.50916 9.34692C5.66748 9.18896 5.84045 9.0459 6.02612 8.92017C6.04431 8.90796 6.0625 8.89587 6.08081 8.88403C6.10388 8.86914 6.12695 8.85437 6.15039 8.83997C6.18115 8.82092 6.21204 8.80212 6.24341 8.78418C6.25122 8.77966 6.25916 8.77539 6.26697 8.771C6.74634 8.50061 7.28564 8.34436 7.83936 8.31885C7.84338 8.3186 7.84753 8.31848 7.85168 8.31836C7.90015 8.31628 7.94873 8.31506 7.99731 8.31506C8.00708 8.31506 8.01672 8.31445 8.02612 8.31348H8.0271C8.03772 8.3125 8.0481 8.31091 8.05823 8.30884C9.08398 8.25378 10.0404 7.82812 10.7717 7.09644C11.2502 6.61768 11.5974 6.04248 11.7958 5.41492C11.7974 5.41003 11.7988 5.40515 11.8004 5.40027C11.8145 5.35498 11.828 5.30945 11.8406 5.26367C11.8422 5.25793 11.8441 5.25232 11.8456 5.2467C11.8496 5.23181 11.853 5.2168 11.8568 5.2019C11.8616 5.18384 11.8661 5.16565 11.8705 5.14746C11.8907 5.06458 11.9083 4.98145 11.9231 4.89795C11.9265 4.87939 11.9296 4.86072 11.9327 4.84204C11.9362 4.82092 11.9397 4.79993 11.9429 4.77881C11.9491 4.73682 11.9546 4.69458 11.9596 4.65234C11.9602 4.64673 11.9608 4.64124 11.9614 4.63562C11.9794 4.47778 11.9888 4.31799 11.9888 4.15674C11.9888 3.06653 11.5701 2.03625 10.8097 1.25549C10.7985 1.24414 10.7867 1.23328 10.7755 1.22192C10.7529 1.19897 10.73 1.17651 10.7068 1.15417C10.6996 1.14734 10.6927 1.14001 10.6855 1.1333C11.6204 1.4989 12.478 2.0575 13.2092 2.78857C14.6012 4.18054 15.3679 6.03137 15.3679 8C15.3679 9.96851 14.6012 11.8193 13.2092 13.2113Z" fill="#FFBD42"/>
<path d="M13.4536 3.9939L13.4398 3.9906C13.2705 3.95081 13.1008 4.05579 13.061 4.2251C13.0212 4.39453 13.1262 4.56409 13.2957 4.60388L13.3095 4.60718C13.3337 4.61292 13.358 4.6156 13.3818 4.6156C13.5248 4.6156 13.6542 4.5177 13.6882 4.37256C13.728 4.20325 13.623 4.03369 13.4536 3.9939Z" fill="#0A2C31"/>
<path d="M3.1428 2.34245L3.15672 2.34574C3.18101 2.35136 3.20518 2.35417 3.22911 2.35417C3.37193 2.35417 3.50132 2.25627 3.53538 2.11113C3.5753 1.94181 3.4702 1.77226 3.30088 1.73234L3.28697 1.72917C3.11766 1.68925 2.9481 1.79435 2.90831 1.96366C2.86839 2.1331 2.97349 2.30265 3.1428 2.34245Z" fill="#FFBD42"/>
<path d="M9.89868 3.8103C9.89868 2.81628 9.08997 2.00757 8.09595 2.00757C7.10193 2.00757 6.29321 2.81628 6.29321 3.8103C6.29321 4.80432 7.10193 5.61304 8.09595 5.61304C9.08997 5.61304 9.89868 4.80432 9.89868 3.8103ZM6.92334 3.8103C6.92334 3.1637 7.44946 2.6377 8.09607 2.6377C8.74268 2.6377 9.26868 3.1637 9.26868 3.8103C9.26868 4.45691 8.74268 4.98303 8.09607 4.98303C7.44946 4.98303 6.92334 4.45691 6.92334 3.8103Z" fill="#FFBD42"/>
<path d="M8.09607 9.99097C7.10205 9.99097 6.29333 10.7997 6.29333 11.7937C6.29333 12.7877 7.10205 13.5964 8.09607 13.5964C9.09009 13.5964 9.8988 12.7877 9.8988 11.7937C9.8988 10.7997 9.08997 9.99097 8.09607 9.99097ZM8.09607 12.9663C7.44946 12.9663 6.92334 12.4403 6.92334 11.7937C6.92334 11.147 7.44946 10.621 8.09607 10.621C8.74268 10.621 9.26868 11.147 9.26868 11.7937C9.26868 12.4403 8.74268 12.9663 8.09607 12.9663Z" fill="#0A2C31"/>
<path d="M14.2589 5.30509C14.1926 5.14433 14.0085 5.06767 13.8476 5.13395C13.6867 5.20024 13.6101 5.38432 13.6764 5.54521C13.9145 6.12296 14.1848 7.04923 14.1202 8.18156C14.1103 8.35527 14.2431 8.50407 14.4168 8.51396C14.423 8.51432 14.4291 8.51457 14.435 8.51457C14.6008 8.51457 14.7397 8.38505 14.7492 8.21745C14.8205 6.96672 14.5219 5.9434 14.2589 5.30509Z" fill="#0A2C31"/>
</g>
<defs>
<clipPath id="clip0_124_2">
<rect width="16" height="16" fill="white"/>
</clipPath>
</defs>
</svg>
