<svg height="512" viewBox="0 0 512 512" width="512" xmlns="http://www.w3.org/2000/svg"><g id="_04_Ghost" data-name="04 Ghost"><g id="Outline"><path d="m368.742 0c-72.957 0-136.742 70.568-136.742 144 0 94.333-56.794 145.743-94.375 179.762-19.525 17.67-33.625 30.438-33.625 44.238 0 9.317 4.063 14.212 7.472 16.679 13.534 9.789 38.155-2.071 56.536-7.17.128 10.385 1.057 18.713 6.828 24.5 13.2 13.234 42.868 1.9 59.68-6.335 4.01 8.287 12.008 12.326 21.484 12.326 19.874 0 42.26-24 55.99-24 11.053 0 13.355 20 34 20 11.59 0 52.955-20.851 90.7-60.711 126.81-133.9 82.533-343.289-67.948-343.289zm57.226 331.345c-35.926 38.295-73.143 56.203-79.968 56.655-4.6 0-6.784-2.332-10.908-7.182-17.456-20.534-32.75-13.5-55.285.369-6.712 4.131-27.38 17.754-31.246 6.643 7.7-5.383 24.58-17.653 37.1-30.173l-11.314-11.314c-19.12 19.116-55.164 45.657-82.347 45.657-7.406 0-12-4-8.006-20.964a313.047 313.047 0 0 0 71.26-49.3l-10.9-11.713a298.54 298.54 0 0 1 -75.76 50.737l.057.122c-52.651 23.118-48.651 9.001-48.651 7.118 0-14.753 56.135-47.368 92.4-102.935 23.953-36.7 35.6-76.3 35.6-121.065 0-65.794 58.679-128 120.742-128 135.69 0 173.106 191.819 57.226 315.345z"/><path d="m78.153 394.756c-8.972-15.54-32.451-18.215-53.449-6.09-36.443 21.039-30.822 63.013 5.414 63.013 31.354 0 61.988-32.754 48.036-56.923zm-29.453 35.479c-17.649 10.191-39.656 5.614-30.862-12.618 9.627-19.96 39.96-26.11 46.456-14.861 3.787 6.554-1.687 19.452-15.594 27.479z"/><path d="m135.229 453.307c-33.277 19.213-25.978 58.693 7.187 58.693 28.286 0 54.2-29.5 41.28-51.871-8.448-14.637-29.74-17.629-48.467-6.822zm22.142 38.351c-10.409 6.009-22.844 5.558-26.612-.966-5.521-9.563 9.44-27.761 27.432-27.761 18.792 0 15.389 19.369-.82 28.727z"/><path d="m296.174 420.366c-12.707 7.335-18.916 21.93-12.431 33.161 10.13 17.546 39.662 11.049 48.013-8.488 8.772-20.528-13.306-37.534-35.582-24.673zm14.5 25.119c-5.624 3.246-11.542 2.7-13.078.042-2.027-3.514 2.65-9.039 6.575-11.305 3.821-2.206 10.982-3.667 13.077-.041 2.03 3.513-2.648 9.039-6.571 11.304z"/><path d="m456 128c-13.458 0-24 14.056-24 32s10.542 32 24 32 24-14.056 24-32-10.542-32-24-32zm0 48c-3.262 0-8-6.233-8-16s4.738-16 8-16 8 6.233 8 16-4.738 16-8 16z"/><path d="m376 128c-13.458 0-24 14.056-24 32s10.542 32 24 32 24-14.056 24-32-10.542-32-24-32zm0 48c-3.262 0-8-6.233-8-16s4.738-16 8-16 8 6.233 8 16-4.738 16-8 16z"/><path d="m255.347 299.123 11.644 10.977a164.106 164.106 0 0 0 11.014-12.772l-12.744-9.673a149.447 149.447 0 0 1 -9.914 11.468z"/></g></g></svg>