<svg id="Capa_1" enable-background="new 0 0 512 512" height="512" viewBox="0 0 512 512" width="512" xmlns="http://www.w3.org/2000/svg"><g><g id="Page-1_29_"><g id="_x30_30---Smoking-Ashtray"><path id="Shape_71_" d="m400.265 185.175 55.168-55.177c5.843-6.753 7.223-16.29 3.533-24.422-3.336-9.117-8.699-17.357-15.684-24.098-6.741-6.98-14.977-12.34-24.09-15.676-8.13-3.701-17.671-2.324-24.422 3.524l-130.288 130.355c-16.674 2.995-34.56-3.797-40.491-15.812-4.281-9.672-14.202-15.587-24.747-14.754-117.324 11.093-199.244 55.603-199.244 108.22v119.467c0 62.208 112.452 110.933 256 110.933s256-48.725 256-110.933v-119.467c0-37.948-41.455-71.851-111.735-92.16zm94.668 92.16c-.832 13.4-7.102 25.878-17.357 34.543-25.37-29.389-76.689-52.053-141.568-62.413l50.347-50.347c67.064 17.553 108.578 47.292 108.578 78.217zm-167.082-116.907c1.527-1.527 12.578.358 24.38 12.151s13.653 22.869 12.151 24.388l-125.09 125.09c-3.357-8.21-8.375-15.639-14.737-21.82-6.197-6.331-13.61-11.344-21.794-14.737zm-139.742 139.725c.588-.315 1.257-.445 1.92-.375 1.724.054 3.429.379 5.052.964 6.584 2.527 12.526 6.482 17.399 11.58 11.793 11.793 13.653 22.869 12.16 24.388s-12.587-.35-24.388-12.151c-11.802-11.802-13.671-22.879-12.143-24.406zm-12.066-12.066c-10.368 10.377-5.12 31.232 12.151 48.521 8.894 9.99 21.249 16.231 34.569 17.459 5.177.192 10.211-1.723 13.952-5.308l84.233-84.224c65.869 8.704 119.467 30.575 143.539 58.283-33.28 23.808-89.899 41.344-153.958 47.403-9.806.878-18.239 7.301-21.692 16.521-6.286 12.165-19.171 19.462-32.836 18.594-13.659.867-26.539-6.422-32.828-18.577-3.442-9.225-11.869-15.658-21.675-16.546-64.111-6.059-120.772-23.612-154.018-47.428 25.353-29.397 83.012-51.618 153.293-59.426zm230.792-206.661c1.527-1.519 12.578.35 24.38 12.151 5.096 4.878 9.045 10.827 11.563 17.417 1.553 4.693.794 6.758.589 6.972l-64.341 64.35c-6.994-16.448-20.087-29.547-36.531-36.548zm-205.977 104.645c3.423.03 6.497 2.103 7.808 5.265 7.886 14.322 22.278 23.882 38.537 25.6l-27.58 27.58c-84.847 5.888-154.231 31.258-185.233 67.328-10.237-8.66-16.495-21.125-17.323-34.509 0-42.778 77.286-81.161 183.791-91.264zm294.075 210.73c0 50.876-109.414 93.867-238.933 93.867s-238.933-42.991-238.933-93.867v-78.464c3.982 4.55 8.332 8.766 13.005 12.604 35.055 28.868 96.956 49.374 169.813 56.269 3.328.328 6.174 2.534 7.322 5.675 8.735 18.859 28.035 30.534 48.794 29.517 20.752.999 40.037-10.686 48.759-29.542 1.159-3.137 4.01-5.335 7.339-5.658 72.875-6.886 134.775-27.392 169.813-56.269 4.681-3.832 9.036-8.045 13.022-12.595v78.463z"/><g clip-rule="evenodd" fill-rule="evenodd"><path id="Path_10_" d="m194.185 49.879c-8.544-8.757-8.544-22.731 0-31.488 1.997-2.305 2.612-5.5 1.615-8.382-.998-2.882-3.457-5.012-6.451-5.589s-6.069.487-8.066 2.792c-14.166 15.153-14.166 38.692 0 53.845 8.544 8.757 8.544 22.731 0 31.488-14.166 15.153-14.166 38.692 0 53.845 3.087 3.563 8.478 3.949 12.041.862s3.949-8.478.862-12.041c-8.544-8.757-8.544-22.731 0-31.488 14.164-15.152 14.164-38.691-.001-53.844z"/><path id="Path_9_" d="m228.318 49.879c-1.997-2.305-5.072-3.369-8.066-2.792s-5.454 2.708-6.451 5.589c-.998 2.882-.382 6.077 1.615 8.382 8.544 8.757 8.544 22.731 0 31.488-14.166 15.153-14.166 38.692 0 53.845 3.087 3.563 8.478 3.949 12.041.862s3.949-8.478.862-12.041c-8.544-8.757-8.544-22.731 0-31.488 14.165-15.153 14.165-38.692-.001-53.845z"/><circle id="Oval_38_" cx="315.733" cy="320.001" r="8.533"/><circle id="Oval_37_" cx="290.133" cy="345.601" r="8.533"/><circle id="Oval_36_" cx="358.4" cy="337.068" r="8.533"/><circle id="Oval_35_" cx="136.533" cy="328.535" r="8.533"/></g></g></g></g></svg>