<svg enable-background="new 0 0 72 72" height="512" viewBox="0 0 72 72" width="512" xmlns="http://www.w3.org/2000/svg"><g id="Layer_25"><g><path d="m10.67529 20.30908-1.26855 7.39648c-.06396.375.09033.75439.39795.97803.30908.22412.71631.25342 1.05322.07617l6.64209-3.49218 6.64209 3.49219c.14648.07666.30615.11475.46533.11475.20703 0 .41357-.06445.58789-.19092.30762-.22363.46191-.60303.39795-.97803l-1.26855-7.39648 5.37305-5.2373c.27295-.26611.37109-.66309.25342-1.02539-.11768-.36182-.43066-.62598-.80713-.68066l-7.42627-1.0791-3.3208-6.729c-.33691-.68262-1.45703-.68262-1.79395 0l-3.3208 6.729-7.42627 1.0791c-.37646.05469-.68945.31885-.80713.68066-.11768.3623-.01953.75928.25342 1.02539zm3.41504-6.11865c.32568-.04736.60693-.25195.75293-.54736l2.65674-5.3833 2.65674 5.3833c.146.29541.42725.5.75293.54736l5.94141.86328-4.29883 4.18994c-.23584.22998-.34326.56104-.28809.88525l1.01514 5.91748-5.31396-2.79395c-.14552-.07665-.30567-.11473-.46534-.11473s-.31982.03809-.46533.11475l-5.31396 2.79395 1.01514-5.91748c.05518-.32422-.05225-.65527-.28809-.88525l-4.29883-4.18994z"/><path d="m61 30.66992c-1.63379 0-3.08691.7876-4 2.00293-.91309-1.21533-2.36621-2.00293-4-2.00293-2.75684 0-5 2.24316-5 5 0 3.85352 7.49609 10.36133 8.35107 11.09082.18702.15967.41797.23926.64893.23926s.46191-.07959.64893-.23926c.85498-.72949 8.35107-7.2373 8.35107-11.09082 0-2.75683-2.24316-5-5-5zm-4 14.00293c-2.94678-2.62549-7-6.94287-7-9.00293 0-1.6543 1.3457-3 3-3s3 1.3457 3 3c0 .55225.44775 1 1 1s1-.44775 1-1c0-1.6543 1.3457-3 3-3s3 1.3457 3 3c0 2.05762-4.05371 6.37647-7 9.00293z"/><path d="m53.83545 46.01367c-.51367.08545-12.63867 2.26221-17.77734 16.6499-.18555.52002.08545 1.09229.60547 1.27832.11132.03956.2246.0586.33642.0586.41064 0 .7959-.25537.94189-.66406 4.72999-13.24463 15.75733-15.27051 16.22461-15.35059.54346-.09131.91064-.60596.81982-1.15039-.09081-.54395-.60351-.91553-1.15087-.82178z"/><path d="m36.80371 53.98047c.06641.01318.13233.01953.19727.01953.4668 0 .88477-.32861.97949-.80371 1.9209-9.604 5.7627-14.52441 5.80127-14.57275.34326-.43213.27246-1.06104-.15918-1.40479-.43066-.34277-1.05811-.2749-1.40332.15674-.16943.21191-4.17529 5.30615-6.19971 15.42822-.1084.5415.24268 1.06836.78418 1.17676z"/><path d="m42.10547 47.55273c-.24707.49414-.04688 1.09473.44727 1.3418.14355.07178.29638.10547.44628.10547.36719 0 .72021-.20215.89551-.55273 1.84033-3.68066 4.61621-5.58545 4.66162-5.61621.4585-.30664.58203-.92676.27588-1.38574-.30664-.45996-.92773-.58447-1.38672-.27734-.13135.08788-3.24511 2.1953-5.33984 6.38475z"/><path d="m14.09033 31.00391c-.54932-.04199-1.03369.35498-1.08496.90381s.35303 1.03564.90186 1.08789c.10547.01025 10.5918 1.13037 17.229 12.5083.18604.31836.52051.49609.86475.49609.1709 0 .34424-.04395.50293-.13623.47705-.27832.63818-.89063.35986-1.36768-7.17725-12.30371-18.30322-13.44921-18.77344-13.49218z"/><path d="m29.60596 18.08105c-.50732.21729-.74268.80518-.5249 1.31299.0288.06787 2.91894 6.90039 2.91894 14.60596 0 .55225.44775 1 1 1s1-.44775 1-1c0-8.11182-2.95508-15.10059-3.08105-15.39404-.2168-.50733-.80567-.74366-1.31299-.52491z"/><path d="m33 36c-.55225 0-1 .44775-1 1v1c0 .55225.44775 1 1 1s1-.44775 1-1v-1c0-.55225-.44775-1-1-1z"/><path d="m36.44727 65.10547c-.49609-.24707-1.09521-.04688-1.3418.44727l-1 2c-.24707.49414-.04688 1.09473.44727 1.3418.14355.07177.29638.10546.44628.10546.36719 0 .72021-.20215.89551-.55273l1-2c.24707-.49414.04688-1.09473-.44726-1.3418z"/><path d="m51.55273 50.10547-2 1c-.49414.24707-.69434.84766-.44727 1.3418.1753.35058.52833.55273.89552.55273.1499 0 .30273-.03369.44629-.10547l2-1c.49414-.24707.69434-.84766.44727-1.3418-.24659-.49414-.8462-.69531-1.34181-.44726z"/><path d="m37 6c.55225 0 1-.44775 1-1v-1c0-.55225-.44775-1-1-1s-1 .44775-1 1v1c0 .55225.44775 1 1 1z"/><path d="m38 10v-1c0-.55225-.44775-1-1-1s-1 .44775-1 1v1c0 .55225.44775 1 1 1s1-.44775 1-1z"/><path d="m39 8h1c.55225 0 1-.44775 1-1s-.44775-1-1-1h-1c-.55225 0-1 .44775-1 1s.44775 1 1 1z"/><path d="m36 7c0-.55225-.44775-1-1-1h-1c-.55225 0-1 .44775-1 1s.44775 1 1 1h1c.55225 0 1-.44775 1-1z"/><path d="m6 38v1c0 .55225.44775 1 1 1s1-.44775 1-1v-1c0-.55225-.44775-1-1-1s-1 .44775-1 1z"/><path d="m7 42c-.55225 0-1 .44775-1 1v1c0 .55225.44775 1 1 1s1-.44775 1-1v-1c0-.55225-.44775-1-1-1z"/><path d="m10 40h-1c-.55225 0-1 .44775-1 1s.44775 1 1 1h1c.55225 0 1-.44775 1-1s-.44775-1-1-1z"/><path d="m5 40h-1c-.55225 0-1 .44775-1 1s.44775 1 1 1h1c.55225 0 1-.44775 1-1s-.44775-1-1-1z"/><path d="m47 23c.55225 0 1-.44775 1-1v-1c0-.55225-.44775-1-1-1s-1 .44775-1 1v1c0 .55225.44775 1 1 1z"/><path d="m48 26c0-.55225-.44775-1-1-1s-1 .44775-1 1v1c0 .55225.44775 1 1 1s1-.44775 1-1z"/><path d="m49 25h1c.55225 0 1-.44775 1-1s-.44775-1-1-1h-1c-.55225 0-1 .44775-1 1s.44775 1 1 1z"/><path d="m44 25h1c.55225 0 1-.44775 1-1s-.44775-1-1-1h-1c-.55225 0-1 .44775-1 1s.44775 1 1 1z"/><path d="m64 53v1c0 .55225.44775 1 1 1s1-.44775 1-1v-1c0-.55225-.44775-1-1-1s-1 .44775-1 1z"/><path d="m65 57c-.55225 0-1 .44775-1 1v1c0 .55225.44775 1 1 1s1-.44775 1-1v-1c0-.55225-.44775-1-1-1z"/><path d="m68 55h-1c-.55225 0-1 .44775-1 1s.44775 1 1 1h1c.55225 0 1-.44775 1-1s-.44775-1-1-1z"/><path d="m63 55h-1c-.55225 0-1 .44775-1 1s.44775 1 1 1h1c.55225 0 1-.44775 1-1s-.44775-1-1-1z"/><path d="m23 44c-1.6543 0-3 1.3457-3 3s1.3457 3 3 3 3-1.3457 3-3-1.3457-3-3-3zm0 4c-.55127 0-1-.44873-1-1s.44873-1 1-1 1 .44873 1 1-.44873 1-1 1z"/></g></g></svg>