<svg id="Capa_1" enable-background="new 0 0 511.999 511.999" height="512" viewBox="0 0 511.999 511.999" width="512" xmlns="http://www.w3.org/2000/svg"><g><path d="m509.818 79.872c-2.919-2.938-7.668-2.952-10.606-.032l-59.7 59.34c-2.938 2.92-2.952 7.669-.032 10.606 3.531 2.94 7.067 2.95 10.606.032l59.7-59.34c2.937-2.92 2.952-7.669.032-10.606z"/><path d="m416.331 162.229-57.81 57.46c-.618.614-11.569 23.471-11.569 23.471l-12.427-12.42c-8.86-8.873-21.759-11.92-33.669-7.956l-10.802 3.601c-15.255 5.091-28.443-11.466-21.637-25.043 4.068-8.144 4.986-17.206 3.013-25.637 14.349-5.936 26.941-15.972 35.857-28.709l94.636-135.193c2.375-3.393 1.55-8.07-1.843-10.445-3.392-2.375-8.068-1.551-10.445 1.843l-94.636 135.193c-7.39 10.558-17.875 18.841-29.814 23.658-2.521-4.934-6.701-6.918-12.541-5.951l-93.801 46.9c-20.829 10.42-30.232 34.667-21.875 56.4l16.45 42.77c1.487 3.866 5.828 5.796 9.692 4.308 3.866-1.487 5.794-5.826 4.308-9.692l-16.45-42.77c-4.62-12.013-1.092-25.173 8.161-33.281l74.339 193.266c.376.979 67.13 66.938 69.12 66.938h18.46c4.142 0 7.5-3.358 7.5-7.5s-3.358-7.5-7.5-7.5h-15.353l-58.798-58.808-34.01-88.419c22.041-40.273 25.507-87.606 9.518-130.722l31.552-15.776c4.162 6.678 4.668 15.163 1.017 22.473-12.634 25.197 13.033 54.864 39.826 45.927l10.798-3.6c6.477-2.157 13.496-.5 18.319 4.329l16.965 16.957-5.316 21.26h-17.443c-4.142 0-7.5 3.358-7.5 7.5s3.358 7.5 7.5 7.5h13.692l-4.017 16.062h-17.441c-4.142 0-7.5 3.358-7.5 7.5s3.358 7.5 7.5 7.5h13.69l-4.016 16.062h-17.439c-4.142 0-7.5 3.358-7.5 7.5s3.358 7.5 7.5 7.5h13.688l-4.017 16.062h-17.437c-4.142 0-7.5 3.358-7.5 7.5s3.358 7.5 7.5 7.5h17.438c2.206 14.211 7.88 36.579 17.49 47.125h-11.631c-4.142 0-7.5 3.358-7.5 7.5s3.358 7.5 7.5 7.5h45.619c.015 0 .029-.002.044-.002 10.535.02 19.533 6.713 22.984 16.069h-33.042c-4.142 0-7.5 3.358-7.5 7.5s3.358 7.5 7.5 7.5h34.55v8.56c0 4.136-3.365 7.5-7.5 7.5h-90.613l-74.328-74.338-36.679-95.364c-1.487-3.866-5.826-5.795-9.692-4.308s-5.795 5.826-4.308 9.692l37.25 96.85c.376.979 66.543 67.466 66.543 67.466h-199.326c-4.142 0-7.5 3.358-7.5 7.5s3.358 7.5 7.5 7.5l311.153.002c12.407 0 22.5-10.093 22.5-22.5v-15.09c0-21.27-18.097-39.54-39.54-39.54-27.662-1.665-34.549-32.064-37.889-54.621l30.436-121.714 13.745-29.135 56.876-56.532c2.938-2.92 2.952-7.668.032-10.606s-7.669-2.951-10.607-.032zm-210.784 137.4-33.296-86.562 36.655-18.327c12.329 34.428 11.029 71.712-3.359 104.889z"/><path d="m38.563 496.997h-31.063c-4.142 0-7.5 3.358-7.5 7.5s3.358 7.5 7.5 7.5h31.062c4.142 0 7.5-3.358 7.5-7.5s-3.357-7.5-7.499-7.5z"/><path d="m124.249 426.841c0 4.142 3.358 7.5 7.5 7.5h46.593c4.142 0 7.5-3.358 7.5-7.5s-3.358-7.5-7.5-7.5h-46.593c-4.142 0-7.5 3.358-7.5 7.5z"/><path d="m69.625 434.341h31.062c4.142 0 7.5-3.358 7.5-7.5s-3.358-7.5-7.5-7.5h-31.062c-4.142 0-7.5 3.358-7.5 7.5s3.358 7.5 7.5 7.5z"/><path d="m69.625 356.685h62.125c4.142 0 7.5-3.358 7.5-7.5s-3.358-7.5-7.5-7.5h-62.125c-4.142 0-7.5 3.358-7.5 7.5s3.358 7.5 7.5 7.5z"/><path d="m38.563 341.685h-31.063c-4.142 0-7.5 3.358-7.5 7.5s3.358 7.5 7.5 7.5h31.062c4.142 0 7.5-3.358 7.5-7.5s-3.357-7.5-7.499-7.5z"/></g></svg>