<svg id="Capa_1" enable-background="new 0 0 512 512" height="512" viewBox="0 0 512 512" width="512" xmlns="http://www.w3.org/2000/svg"><g><g><path d="m256 248.499c-13.047 0-23.663 10.615-23.663 23.663s10.615 23.663 23.663 23.663 23.663-10.615 23.663-23.663-10.616-23.663-23.663-23.663zm0 32.325c-4.776 0-8.663-3.886-8.663-8.663s3.886-8.663 8.663-8.663 8.663 3.886 8.663 8.663-3.887 8.663-8.663 8.663z"/><path d="m504.5 197.989h-23.59c-4.142 0-7.5 3.358-7.5 7.5s3.358 7.5 7.5 7.5h16.09v6.64c0 7.008-5.697 12.71-12.7 12.71h-109.1c-7.003 0-12.7-5.702-12.7-12.71v-6.64h83.41c4.142 0 7.5-3.358 7.5-7.5s-3.358-7.5-7.5-7.5h-90.91c-4.142 0-7.5 3.358-7.5 7.5v14.14c0 15.279 12.426 27.71 27.7 27.71h47.048v10.681c0 3.663-2.98 6.642-6.643 6.642h-104.134c-3.678-27.336-27.144-48.488-55.471-48.488s-51.793 21.152-55.471 48.488h-104.134c-3.663 0-6.643-2.979-6.643-6.642v-10.683h47.049c15.275 0 27.703-12.428 27.703-27.703v-14.144c0-4.142-3.358-7.5-7.5-7.5h-149.504c-4.142 0-7.5 3.358-7.5 7.5v14.143c0 15.275 12.428 27.703 27.703 27.703h47.049v10.683c0 11.934 9.709 21.642 21.643 21.642h104.135c1.794 13.337 8.288 25.203 17.773 33.857l-44.499 134.991h-84.304c-4.142 0-7.5 3.358-7.5 7.5s3.358 7.5 7.5 7.5h406.92c.32 0 .58.26.58.58v16.17c0 .32-.26.58-.58.58h-480.84c-.32 0-.58-.26-.58-.58v-16.17c0-.32.26-.58.58-.58h38.92c4.142 0 7.5-3.358 7.5-7.5s-3.358-7.5-7.5-7.5h-38.92c-8.591 0-15.58 6.989-15.58 15.58v16.17c0 8.591 6.989 15.58 15.58 15.58h480.84c8.591 0 15.58-6.989 15.58-15.58v-16.17c0-8.591-6.989-15.58-15.58-15.58h-158.224l-44.499-134.991c9.485-8.653 15.978-20.52 17.773-33.857h104.135c11.934 0 21.643-9.708 21.643-21.642v-10.681h47.052c15.274 0 27.7-12.431 27.7-27.71v-14.14c0-4.141-3.358-7.499-7.5-7.499zm-489.5 21.644v-6.643h134.504v6.643c0 7.004-5.699 12.703-12.703 12.703h-109.098c-7.004 0-12.703-5.699-12.703-12.703zm307.402 228.876h-132.804l41.593-126.175c7.483 3.715 15.904 5.816 24.81 5.816s17.327-2.1 24.81-5.816zm-66.402-135.36c-22.601 0-40.988-18.387-40.988-40.988s18.387-40.988 40.988-40.988 40.988 18.387 40.988 40.988-18.387 40.988-40.988 40.988z"/><path d="m494.398 48.487h-24.825v-10.684c0-11.934-9.709-21.642-21.643-21.642h-36.366c-11.934 0-21.642 9.708-21.642 21.642v10.683h-24.826c-9.706 0-17.602 7.896-17.602 17.602v96.976c0 9.706 7.896 17.602 17.602 17.602h129.301c9.706 0 17.602-7.896 17.602-17.602v-96.976c.001-9.705-7.895-17.601-17.601-17.601zm-89.475-10.684c0-3.663 2.979-6.642 6.642-6.642h36.366c3.663 0 6.643 2.979 6.643 6.642v10.683h-49.65v-10.683zm-42.427 28.285c0-1.435 1.167-2.602 2.602-2.602h129.301c1.435 0 2.602 1.167 2.602 2.602v28.285c0 1.435-1.167 2.602-2.602 2.602h-129.301c-1.435 0-2.602-1.167-2.602-2.602zm58.589 45.886h17.325v16.744c0 .32-.261.581-.582.581h-16.163c-.32 0-.581-.261-.581-.581v-16.744zm73.313 53.691h-129.3c-1.435 0-2.602-1.167-2.602-2.602v-51.303c.851.127 1.715.214 2.602.214h40.988v16.744c0 8.591 6.99 15.581 15.581 15.581h16.163c8.592 0 15.582-6.99 15.582-15.581v-16.744h40.988c.886 0 1.75-.087 2.602-.214v51.303c-.002 1.435-1.169 2.602-2.604 2.602z"/><path d="m62.667 161.952c5.232 5.232 12.188 8.114 19.588 8.114s14.356-2.881 19.588-8.114l15.05-15.05c2.929-2.929 2.929-7.678 0-10.606-2.929-2.929-7.678-2.929-10.606 0l-15.05 15.05c-2.399 2.399-5.589 3.721-8.982 3.721s-6.582-1.321-8.981-3.721l-47.13-47.13c-14.196-14.196-14.623-37.246-.953-51.383 6.826-7.058 15.987-10.989 25.796-11.071 9.831-.12 19.029 3.689 25.959 10.621 2.928 2.929 7.675 2.929 10.605.001 6.938-6.934 16.146-10.735 25.97-10.622 9.805.083 18.963 4.015 25.789 11.073 13.677 14.135 13.253 37.185-.943 51.381l-7.34 7.34c-2.929 2.929-2.929 7.678 0 10.606 2.929 2.929 7.678 2.929 10.606 0l7.34-7.34c19.95-19.95 20.451-52.436 1.118-72.417-9.642-9.97-22.584-15.525-36.442-15.643-11.515-.11-22.413 3.549-31.398 10.381-8.979-6.83-19.862-10.508-31.389-10.381-13.863.116-26.809 5.671-36.454 15.644-19.324 19.984-18.818 52.47 1.128 72.417z"/></g></g></svg>