<svg id="Layer_1" enable-background="new 0 0 512 512" viewBox="0 0 512 512" xmlns="http://www.w3.org/2000/svg"><g><path d="m176.152 195.175-19.129 16.579c-4.696 4.069-7.323 9.967-7.208 16.18s2.958 12.009 7.801 15.903l41.684 33.514c3.737 3.004 8.372 4.61 13.102 4.61 1.159 0 2.325-.096 3.484-.292 5.887-.997 11.077-4.474 14.239-9.537l15.413-24.684c38.379 3.721 70.35-5.062 95.108-26.15 42.845-36.494 49.714-97.788 50.773-113.052l16.795-21.192c1.722-2.174 2.465-4.965 2.05-7.707s-1.95-5.188-4.238-6.755l-27.368-18.738c-14.72-10.016-29.584-13.009-44.184-8.897-28.4 8-44.661 40.881-46.69 45.203l-.843 1.517c-21.36-16.915-41.379-41.453-58.331-71.618-3.568-6.35-10.049-10.153-17.336-10.173-.019 0-.037-.001-.056-.001-7.195 0-13.873 3.884-17.437 10.144-9.538 16.754-15.481 33.485-17.792 49.944-7-4.864-13.113-9.552-18.131-13.628-5.508-4.474-12.781-5.702-19.455-3.282-6.647 2.408-11.424 7.983-12.78 14.911-10.393 53.12 7.663 86.845 24.641 105.781 8.884 9.91 18.361 16.853 25.888 21.42zm35.069-165.233c18.669 33.198 41.046 60.251 65.122 78.837-17.816-.628-36.934-5.377-56.943-14.176-8.669-3.813-16.854-8.097-24.441-12.522.648-16.836 6.072-34.338 16.262-52.139zm-65.98 41.925c.001 0 .002.001.004.001 8.62 7.002 20.27 15.691 34.103 24.175.016.01.033.019.048.03 9.674 5.931 20.405 11.76 31.951 16.839 25.251 11.104 49.541 16.477 72.19 15.913 3.544-.085 6.778-2.041 8.5-5.141 0 0 17.282-32.488 23.534-40.65 5.347-6.98 13.916-15.915 24.376-18.84 8.75-2.444 17.732-.421 27.434 6.18l18.496 12.664-12.107 15.278c-1.338 1.687-2.095 3.762-2.158 5.913-.021.661-2.447 66.505-43.935 101.844-21.645 18.438-50.574 25.443-85.983 20.811-3.887-.508-7.704 1.298-9.779 4.619l-18.755 30.036c-.053.085-.214.344-.614.411-.397.066-.636-.124-.714-.187l-41.684-33.513c-.082-.065-.329-.265-.336-.686s.232-.629.311-.697l30.351-26.305c2.668-2.312 3.902-5.866 3.274-9.34-.627-3.475-3.057-6.366-6.365-7.6-2.817-1.049-68.737-26.677-52.142-111.755z"/><path d="m484.142 171.185c-9-1.847-28.215.497-37.674 22.515-.064.149-.125.301-.183.453l-29.23 78.386c-4.999-2.937-10.704-4.508-16.651-4.508-6.325 0-12.48 1.811-17.787 5.228l-74.959 48.113c-28.439 17.32-43.59 40.062-51.659 59.287-8.069-19.225-23.22-41.967-51.659-59.287l-74.946-48.104c-5.319-3.426-11.474-5.236-17.8-5.236-5.946 0-11.654 1.565-16.653 4.503l-29.228-78.381c-.057-.152-.118-.304-.182-.453-9.46-22.018-28.68-24.361-37.674-22.515-18.258 3.404-29.848 19.133-27.573 37.451.049.398.123.793.22 1.182l31.666 127.298c8.403 33.601 31.239 67.498 61.086 90.672.103.08.208.158.314.234l50.528 36.152v17.94c0 11.028 8.972 20 20 20h183.802c11.028 0 20-8.972 20-20v-17.94l50.527-36.152c.106-.076.211-.154.314-.234 29.847-23.173 52.683-57.069 61.09-90.683l4.519-18.163c1.333-5.359-1.931-10.785-7.29-12.118-5.356-1.333-10.784 1.931-12.118 7.29l-4.516 18.15c-7.23 28.908-27.837 59.395-53.799 79.609l-54.547 39.027c-2.624 1.878-4.181 4.906-4.181 8.133v23.082h-81.749s-.014-48.614-.037-48.892c-.013-.153-1.215-15.5 4.707-34.836 7.796-25.456 23.721-45.64 47.332-59.99.07-.043 75.279-48.316 75.279-48.316 2.084-1.342 4.494-2.051 6.972-2.051 3.461 0 6.719 1.352 9.168 3.801 4.772 4.778 5.008 12.553.637 17.612l-49.905 39.358c-4.337 3.42-5.079 9.708-1.659 14.044s9.709 5.08 14.044 1.659c0 0 51.272-40.479 51.599-40.823 8.757-9.206 11.202-21.974 7.412-33.172l33.233-89.123c5.016-11.436 13.34-10.887 15.259-10.591.112.028.02.003.217.039 7.758 1.419 12.229 7.201 11.518 14.806l-5.309 21.339c-1.333 5.359 1.931 10.785 7.29 12.118 5.357 1.337 10.785-1.93 12.118-7.29l5.47-21.988c.097-.39.17-.784.22-1.182 2.275-18.318-9.316-34.047-27.573-37.453zm-238.254 262.006c-.027.3-.041 48.925-.041 48.925h-81.748v-23.082c0-3.227-1.557-6.255-4.181-8.133l-54.548-39.027c-25.962-20.215-46.568-50.701-53.794-79.596l-31.502-126.639c-.713-7.604 3.759-13.386 11.517-14.805.098-.019.195-.037.292-.059.395-.082 9.69-1.915 15.183 10.61l33.228 89.108c-3.794 11.199-1.343 23.977 7.417 33.186.328.345 51.6 40.824 51.6 40.824 4.336 3.421 10.624 2.677 14.044-1.659 3.42-4.337 2.677-10.624-1.66-14.044l-49.905-39.358c-4.372-5.061-4.136-12.834.632-17.608 2.454-2.453 5.711-3.805 9.172-3.805 2.477 0 4.888.709 6.984 2.06 0 0 75.197 48.265 75.267 48.307 23.611 14.352 39.536 34.535 47.331 59.991 5.923 19.336 4.722 34.683 4.712 34.804z"/><circle cx="343.62" cy="90.394" r="10"/><circle cx="485.369" cy="272.94" r="10"/></g><g/><g/><g/><g/><g/><g/><g/><g/><g/><g/><g/><g/><g/><g/><g/></svg>