<svg id="Layer_1" enable-background="new 0 0 512 512" viewBox="0 0 512 512" xmlns="http://www.w3.org/2000/svg"><g><path d="m32.404 178.628c-8.73-8.73-13.539-20.338-13.539-32.686 0-12.347 4.809-23.955 13.539-32.686l80.851-80.852c8.73-8.73 20.338-13.539 32.686-13.539s23.955 4.809 32.686 13.539l33.885 33.885c2.93 2.928 7.678 2.928 10.607 0 2.929-2.93 2.929-7.678 0-10.607l-33.885-33.885c-11.565-11.563-26.94-17.931-43.294-17.931s-31.729 6.369-43.293 17.933l-80.85 80.851c-11.563 11.563-17.932 26.938-17.932 43.292s6.369 31.729 17.933 43.293l240.158 240.157c1.465 1.464 3.385 2.196 5.304 2.196 1.92 0 3.839-.732 5.304-2.196 2.929-2.93 2.929-7.678 0-10.607z"/><path d="m249.203 81.768c-2.93-2.928-7.678-2.928-10.607 0-2.929 2.93-2.929 7.678 0 10.607l241 240.997c8.73 8.73 13.539 20.338 13.539 32.686 0 12.347-4.809 23.955-13.539 32.686l-80.851 80.852c-8.73 8.73-20.338 13.539-32.686 13.539s-23.955-4.809-32.686-13.539l-35.303-35.303c-2.93-2.928-7.678-2.928-10.607 0-2.929 2.93-2.929 7.678 0 10.607l35.303 35.303c11.564 11.563 26.939 17.932 43.293 17.932s31.729-6.369 43.293-17.933l80.851-80.852c11.563-11.563 17.932-26.938 17.932-43.292s-6.369-31.729-17.933-43.293z"/><path d="m318.386 381.848 63.463-63.463c11.546-11.547 11.546-30.334 0-41.882l-146.354-146.352c-11.548-11.547-30.335-11.546-41.881.001l-63.463 63.463c-11.546 11.547-11.546 30.334 0 41.882l146.353 146.352h.001c5.773 5.773 13.356 8.659 20.939 8.659 7.584 0 15.168-2.887 20.942-8.66zm-177.627-156.957c-5.698-5.699-5.698-14.971 0-20.668l63.463-63.464c5.695-5.698 14.968-5.698 20.667 0l146.353 146.351c5.698 5.699 5.698 14.971 0 20.668l-63.463 63.464c-5.695 5.698-14.967 5.698-20.668 0z"/><path d="m228.836 191.077-7.828 7.828c-2.929 2.93-2.929 7.678 0 10.607 1.465 1.464 3.385 2.196 5.304 2.196s3.839-.732 5.304-2.196l7.828-7.828c2.929-2.93 2.929-7.678 0-10.607-2.93-2.928-7.678-2.928-10.608 0z"/><path d="m307.791 293.188c1.919 0 3.839-.732 5.304-2.197l7.828-7.829c2.929-2.929 2.929-7.678-.001-10.606-2.928-2.928-7.677-2.929-10.606.001l-7.828 7.829c-2.929 2.929-2.929 7.678.001 10.606 1.463 1.464 3.382 2.196 5.302 2.196z"/><path d="m277.511 247.974c-3.649.26-7.234-1.084-9.816-3.667s-3.92-6.162-3.669-9.818c.283-4.133-2.837-7.713-6.969-7.996-4.14-.292-7.713 2.836-7.996 6.969-.548 7.983 2.378 15.802 8.026 21.452 5.199 5.199 12.236 8.091 19.548 8.091.634 0 1.269-.021 1.905-.065 4.133-.284 7.252-3.864 6.968-7.997s-3.875-7.253-7.997-6.969z"/><path d="m86.558 327.795h-5.112v-5.112c0-14.03-11.414-25.444-25.444-25.444s-25.444 11.414-25.444 25.444v5.112h-5.112c-14.032 0-25.446 11.414-25.446 25.444s11.414 25.444 25.444 25.444h5.112v5.112c0 14.03 11.414 25.444 25.444 25.444s25.444-11.414 25.444-25.444v-5.112h5.112c14.03 0 25.444-11.414 25.444-25.444s-11.412-25.444-25.442-25.444zm0 35.889h-12.613c-4.143 0-7.5 3.357-7.5 7.5v12.612c0 5.759-4.686 10.444-10.444 10.444s-10.444-4.686-10.444-10.444v-12.612c0-4.143-3.357-7.5-7.5-7.5h-12.613c-5.759 0-10.444-4.686-10.444-10.444s4.686-10.444 10.444-10.444h12.612c4.143 0 7.5-3.357 7.5-7.5v-12.612c0-5.759 4.686-10.444 10.444-10.444s10.444 4.686 10.444 10.444v12.612c0 4.143 3.357 7.5 7.5 7.5h12.612c5.759 0 10.444 4.686 10.444 10.444s-4.684 10.444-10.442 10.444z"/><path d="m425.442 184.205h5.112v5.112c0 14.03 11.414 25.444 25.444 25.444s25.444-11.414 25.444-25.444v-5.112h5.112c14.03 0 25.444-11.414 25.444-25.444s-11.414-25.444-25.444-25.444h-5.112v-5.112c0-14.03-11.414-25.444-25.444-25.444s-25.444 11.414-25.444 25.444v5.112h-5.112c-14.03 0-25.444 11.414-25.444 25.444s11.414 25.444 25.444 25.444zm0-35.889h12.612c4.143 0 7.5-3.357 7.5-7.5v-12.612c0-5.759 4.686-10.444 10.444-10.444s10.444 4.686 10.444 10.444v12.612c0 4.143 3.357 7.5 7.5 7.5h12.612c5.759 0 10.444 4.686 10.444 10.444s-4.686 10.444-10.444 10.444h-12.612c-4.143 0-7.5 3.357-7.5 7.5v12.612c0 5.759-4.686 10.444-10.444 10.444s-10.444-4.686-10.444-10.444v-12.612c0-4.143-3.357-7.5-7.5-7.5h-12.612c-5.759 0-10.444-4.686-10.444-10.444s4.686-10.444 10.444-10.444z"/><path d="m361.82 63.385h10.896v10.895c0 4.143 3.357 7.5 7.5 7.5s7.5-3.357 7.5-7.5v-10.895h10.896c4.143 0 7.5-3.357 7.5-7.5s-3.357-7.5-7.5-7.5h-10.896v-10.897c0-4.143-3.357-7.5-7.5-7.5s-7.5 3.357-7.5 7.5v10.896h-10.896c-4.143 0-7.5 3.357-7.5 7.5s3.358 7.501 7.5 7.501z"/><path d="m150.18 448.615h-10.896v-10.895c0-4.143-3.357-7.5-7.5-7.5s-7.5 3.357-7.5 7.5v10.896h-10.896c-4.143 0-7.5 3.357-7.5 7.5s3.357 7.5 7.5 7.5h10.896v10.896c0 4.143 3.357 7.5 7.5 7.5s7.5-3.357 7.5-7.5v-10.896h10.896c4.143 0 7.5-3.357 7.5-7.5s-3.358-7.501-7.5-7.501z"/><circle cx="145.3" cy="51.64" r="7.5"/><circle cx="152.8" cy="105.91" r="7.5"/><circle cx="98.47" cy="98.471" r="7.5"/><circle cx="105.97" cy="152.8" r="7.5"/><circle cx="51.64" cy="145.304" r="7.5"/><circle cx="359.26" cy="406.092" r="7.5"/><circle cx="413.53" cy="413.529" r="7.5"/><circle cx="406.03" cy="359.259" r="7.5"/><circle cx="460.359" cy="366.76" r="7.5"/><circle cx="366.76" cy="460.359" r="7.5"/></g><g/><g/><g/><g/><g/><g/><g/><g/><g/><g/><g/><g/><g/><g/><g/></svg>