<svg id="Capa_1" enable-background="new 0 0 512 512" height="512" viewBox="0 0 512 512" width="512" xmlns="http://www.w3.org/2000/svg"><g><g><path d="m424.233 398.007c33.49-39.635 51.934-90.067 51.934-142.007 0-58.809-22.901-114.097-64.485-155.681s-96.873-64.486-155.682-64.486c-51.939 0-102.372 18.443-142.008 51.933-3.35 2.831-3.566 7.929-.463 11.032l299.672 299.672c3.105 3.104 8.201 2.89 11.032-.463zm-122.842-132.56-54.837-54.838c3.345-1.112 6.784-1.906 10.295-2.349 13.271-1.673 25.704-7.103 36.01-15.753l43.77-37.493 20.358 20.358-37.543 43.826c-8.601 10.248-14.03 22.68-15.704 35.953-.444 3.512-1.238 6.951-2.349 10.296zm41.436-130.3 6.692-6.692c1.337-1.338 3.516-1.336 4.851 0l29.175 29.174c1.338 1.337 1.338 3.514 0 4.852l-6.692 6.692c-1.253 1.254-3.238 1.315-4.582.22l-29.661-29.66c-1.1-1.346-1.038-3.331.217-4.586zm-24.205 121.88c1.312-10.406 5.568-20.152 12.263-28.128l38.152-44.537c1.755.534 3.572.807 5.39.807 4.72 0 9.439-1.796 13.033-5.39l6.692-6.692c7.186-7.186 7.186-18.878 0-26.064l-29.175-29.174c-7.187-7.186-18.877-7.188-26.065 0l-6.692 6.692c-4.978 4.978-6.501 12.117-4.582 18.423l-44.479 38.102c-8.034 6.743-17.781 11-28.187 12.312-6.919.873-13.622 2.782-19.978 5.67l-104.973-104.972c35.892-27.94 80.311-43.243 125.979-43.243 113.13 0 205.167 92.037 205.167 205.167 0 45.668-15.303 90.087-43.243 125.98l-104.973-104.973c2.888-6.355 4.798-13.058 5.671-19.98z"/><path d="m87.767 113.993c-33.491 39.635-51.934 90.067-51.934 142.007 0 58.809 22.901 114.098 64.485 155.682s96.873 64.485 155.682 64.485c51.939 0 102.372-18.443 142.008-51.933 3.35-2.831 3.566-7.929.463-11.032l-299.672-299.672c-3.101-3.1-8.2-2.892-11.032.463zm140.936 150.654-6.028 6.028c-2.929 2.929-2.929 7.678 0 10.606 2.93 2.929 7.678 2.929 10.607 0l6.028-6.028 30.246 30.246-66.432 66.432-29.879-29.878c-.203-.203-.203-.533-.001-.736l35.307-35.306c2.93-2.929 2.93-7.677.001-10.606s-7.678-2.93-10.606 0l-35.308 35.306c-6.051 6.051-6.051 15.897 0 21.949l29.88 29.879-9.719 9.719c-5.938 5.937-15.599 5.938-21.535 0l-41.522-41.522c-5.95-5.951-5.952-15.584.001-21.535l86.758-86.759zm-119.568 53.949c-11.814 11.812-11.816 30.933-.001 42.748l41.522 41.522c11.785 11.785 30.961 11.785 42.748 0l86.759-86.759 101.816 101.817c-35.893 27.94-80.312 43.243-125.979 43.243-113.13 0-205.167-92.038-205.167-205.167 0-45.668 15.303-90.087 43.243-125.98l101.817 101.817z"/><path d="m15 256c0-133.193 107.787-241 241-241 56.552 0 111.519 19.981 154.776 56.262 3.174 2.661 7.903 2.248 10.565-.927 2.662-3.174 2.247-7.904-.927-10.566-45.953-38.542-104.343-59.769-164.414-59.769-141.487 0-256 114.501-256 256 0 60.04 21.207 118.407 59.714 164.35 1.483 1.77 3.61 2.683 5.752 2.682 1.699 0 3.409-.575 4.813-1.752 3.175-2.661 3.592-7.391.931-10.566-36.247-43.247-56.21-98.192-56.21-154.714z"/><path d="m446.394 84.865c-2.77-3.08-7.511-3.33-10.592-.561-3.079 2.77-3.331 7.512-.561 10.592 39.826 44.279 61.759 101.494 61.759 161.104 0 133.193-107.787 241-241 241-59.61 0-116.825-21.933-161.104-61.759-3.082-2.771-7.823-2.517-10.592.561-2.771 3.08-2.519 7.822.561 10.592 47.038 42.307 107.815 65.606 171.135 65.606 141.487 0 256-114.501 256-256 0-63.32-23.3-124.097-65.606-171.135z"/></g></g></svg>