<?xml version="1.0" encoding="UTF-8"?>
<svg xmlns="http://www.w3.org/2000/svg" xmlns:xlink="http://www.w3.org/1999/xlink" version="1.1" id="Capa_1" x="0px" y="0px" viewBox="0 0 511.995 511.995" style="enable-background:new 0 0 511.995 511.995;" xml:space="preserve" width="512" height="512">
<g>
	<g>
		<path style="fill:none;stroke:#000000;stroke-width:15;stroke-linecap:round;stroke-linejoin:round;stroke-miterlimit:10;" d="&#10;&#9;&#9;&#9;M382.397,241.782c-5.983-3.085-11.287-6.603-15.209-11.188c-7.11-8.312-11.109-22.609-11.853-34.091&#10;&#9;&#9;&#9;c-6.461,4.441-14.789,6.605-23.605,5.214c-0.833,24.778-13.803,46.816-33.134,60.013l0.021,25.822&#10;&#9;&#9;&#9;c0.009,3.184,1.972,6.026,4.926,7.168c2.917,1.129,36.395,14.095,65.299,25.289C403.984,303.231,400.597,251.166,382.397,241.782z&#10;&#9;&#9;&#9;"/>
	</g>
	<g>
		<path style="fill:none;stroke:#000000;stroke-width:15;stroke-linecap:round;stroke-linejoin:round;stroke-miterlimit:10;" d="&#10;&#9;&#9;&#9;M213.331,261.883c-20.306-13.475-32.504-36.074-33.086-60.162c-8.809,1.384-17.13-0.78-23.585-5.218&#10;&#9;&#9;&#9;c-0.744,11.482-4.743,25.779-11.853,34.091c-3.922,4.585-9.226,8.103-15.21,11.188c-18.38,9.477-23.71,62.463,12.252,78.716&#10;&#9;&#9;&#9;c29.05-11.262,63.002-24.425,63.977-24.803v0.001c2.243-0.87,7.504-2.291,7.504-8.189L213.331,261.883z"/>
	</g>
	<path style="fill:none;stroke:#000000;stroke-width:15;stroke-linecap:round;stroke-linejoin:round;stroke-miterlimit:10;" d="&#10;&#9;&#9;M180.202,145.463L180.202,145.463h-0.041c-11.702-1.632-21.616,2.688-28.644,8.397c-0.003,0.002-0.006,0.005-0.009,0.007&#10;&#9;&#9;c-4.734,5.116-7.614,11.789-7.614,19.099c0,17.774,17.013,31.794,36.352,28.755c-0.014-0.601-0.044-1.2-0.044-1.802V145.463z"/>
	<path style="fill:none;stroke:#000000;stroke-width:15;stroke-linecap:round;stroke-linejoin:round;stroke-miterlimit:10;" d="&#10;&#9;&#9;M360.468,153.847c-6.56-5.944-16.721-10.082-28.635-8.384h-0.041h0v53.721c0,0.849-0.036,1.69-0.065,2.533&#10;&#9;&#9;c19.347,3.052,36.373-10.972,36.373-28.752C368.1,165.647,365.213,158.965,360.468,153.847z"/>
	<path style="fill:none;stroke:#000000;stroke-width:15;stroke-linecap:round;stroke-linejoin:round;stroke-miterlimit:10;" d="&#10;&#9;&#9;M311.223,145.463c-2.375,0-2.553-0.061-15.717-1.177c-18.211-1.544-33.912-15.365-38.267-33.289c-0.318-1.312-2.159-1.313-2.479,0&#10;&#9;&#9;c-4.421,18.234-20.47,31.969-38.687,33.364c1.068-0.082-13.469,1.102-16.054,1.102h-19.817v54.456&#10;&#9;&#9;c0,38.951,30.449,74.559,76.573,74.714c41.259,0.139,75.017-34.19,75.017-75.449v-53.721H311.223z"/>
	<path style="fill:none;stroke:#000000;stroke-width:15;stroke-linecap:round;stroke-linejoin:round;stroke-miterlimit:10;" d="&#10;&#9;&#9;M195.2,299.815c-9.928,3.849-25.519,9.893-41.201,15.973v67.273c0,10.946,1.826,21.814,5.404,32.159l30.876,89.275h36.442&#10;&#9;&#9;L195.2,299.815z"/>
	<path style="fill:none;stroke:#000000;stroke-width:15;stroke-linecap:round;stroke-linejoin:round;stroke-miterlimit:10;" d="&#10;&#9;&#9;M357.996,315.81c-15.312-5.93-30.681-11.882-41.207-15.958l-31.516,204.644h36.442l30.876-89.275&#10;&#9;&#9;c3.578-10.344,5.404-21.213,5.404-32.159V315.81z"/>
	<path style="fill:none;stroke:#000000;stroke-width:15;stroke-linecap:round;stroke-linejoin:round;stroke-miterlimit:10;" d="&#10;&#9;&#9;M159.403,415.22c-3.578-10.344-5.404-21.213-5.404-32.159v-67.273c-26.205,10.159-52.643,20.409-53.25,20.644&#10;&#9;&#9;c-17.822,7.333-41.686,30.412-41.686,64.657l0,83.116c0,11.206,9.084,20.29,20.29,20.29h110.926L159.403,415.22z"/>
	<path style="fill:none;stroke:#000000;stroke-width:15;stroke-linecap:round;stroke-linejoin:round;stroke-miterlimit:10;" d="&#10;&#9;&#9;M316.79,299.851c-7.25-2.808-12.204-4.726-13.247-5.13c-1.145-0.443-2.135-1.146-2.926-2.021l-26.062,36.117&#10;&#9;&#9;c-5.413,7.501-3.757,17.966,3.708,23.429l27.373,20.034L316.79,299.851z"/>
	<path style="fill:none;stroke:#000000;stroke-width:15;stroke-linecap:round;stroke-linejoin:round;stroke-miterlimit:10;" d="&#10;&#9;&#9;M195.2,299.815l11.16,72.466l27.373-20.034c7.465-5.463,9.121-15.928,3.708-23.429l-26.091-36.158&#10;&#9;&#9;c-1.732,1.781-4.171,2.512-5.522,3.036v-0.001C205.501,295.821,201.481,297.379,195.2,299.815z"/>
	<path style="fill:none;stroke:#000000;stroke-width:15;stroke-linecap:round;stroke-linejoin:round;stroke-miterlimit:10;" d="&#10;&#9;&#9;M298.595,261.73c-11.968,8.171-26.368,12.955-41.82,12.903c-16.805-0.056-31.516-4.835-43.444-12.751l0.001,25.624&#10;&#9;&#9;c0,2.347-0.838,3.977-1.982,5.153l26.091,36.158c3.833,5.311,4.105,12.101,1.297,17.556h34.52&#10;&#9;&#9;c-2.808-5.455-2.535-12.245,1.297-17.556l26.062-36.117c-1.25-1.381-1.994-3.198-2-5.148L298.595,261.73z"/>
	<path style="fill:none;stroke:#000000;stroke-width:15;stroke-linecap:round;stroke-linejoin:round;stroke-miterlimit:10;" d="&#10;&#9;&#9;M273.257,346.374h-34.52c-1.158,2.25-2.826,4.278-5.005,5.873L206.36,372.28l20.362,132.215h58.552l20.362-132.215l-27.373-20.034&#10;&#9;&#9;C276.083,350.651,274.415,348.623,273.257,346.374z"/>
	
		<line style="fill:none;stroke:#000000;stroke-width:15;stroke-linecap:round;stroke-linejoin:round;stroke-miterlimit:10;" x1="255.983" y1="382.616" x2="255.983" y2="459.874"/>
	
		<line style="fill:none;stroke:#000000;stroke-width:15;stroke-linecap:round;stroke-linejoin:round;stroke-miterlimit:10;" x1="121.106" y1="403.155" x2="121.106" y2="501.874"/>
	
		<line style="fill:none;stroke:#000000;stroke-width:15;stroke-linecap:round;stroke-linejoin:round;stroke-miterlimit:10;" x1="390.889" y1="403.155" x2="390.889" y2="501.874"/>
	<path style="fill:none;stroke:#000000;stroke-width:15;stroke-linecap:round;stroke-linejoin:round;stroke-miterlimit:10;" d="&#10;&#9;&#9;M325.434,33.909C306.972,17.484,282.654,7.5,255.999,7.5h0c-55.01,0-104.508,43.125-104.508,107.185v39.195&#10;&#9;&#9;c7.029-5.719,16.954-10.051,28.67-8.417h0.041h19.817c2.585,0,17.122-1.184,16.054-1.102c18.258-1.398,34.276-15.17,38.687-33.364&#10;&#9;&#9;c0.32-1.315,2.162-1.309,2.479,0c4.38,18.021,20.149,31.752,38.266,33.289c13.164,1.116,13.343,1.177,15.718,1.177h20.569h0.041&#10;&#9;&#9;c11.937-1.701,22.115,2.455,28.674,8.417c0-13.91,0-27.838,0-41.872c0-18.44-4.782-35.76-13.164-50.799"/>
	<path style="fill:none;stroke:#000000;stroke-width:15;stroke-linecap:round;stroke-linejoin:round;stroke-miterlimit:10;" d="&#10;&#9;&#9;M452.932,421.245c0-10.708,0-18.192,0-20.156c0-34.245-23.864-57.323-41.686-64.657c-2.572-0.996-27.823-10.775-53.25-20.623&#10;&#9;&#9;v67.251c0,10.946-1.826,21.814-5.404,32.159l-30.876,89.275h110.926c11.206,0,20.29-9.083,20.29-20.289c0-9.421,0-18.916,0-27.961"/>
</g>















</svg>
