<svg id="Capa_1" enable-background="new 0 0 512 512" height="512" viewBox="0 0 512 512" width="512" xmlns="http://www.w3.org/2000/svg"><g><path d="m359.536 277.656h1.859c10.723 0 19.447-8.724 19.447-19.447v-15.665c0-4.142-3.358-7.5-7.5-7.5s-7.5 3.358-7.5 7.5v15.665c0 2.452-1.995 4.447-4.447 4.447h-1.859c-4.142 0-7.5 3.358-7.5 7.5s3.358 7.5 7.5 7.5z"/><path d="m171.548 330.198c-7.979 1.496-16.386 1.496-24.373-.002-4.074-.763-7.99 1.918-8.754 5.989-.763 4.071 1.918 7.99 5.989 8.754 9.839 1.845 20.048 1.849 29.901.002 4.071-.763 6.753-4.683 5.99-8.753-.763-4.072-4.681-6.753-8.753-5.99z"/><path d="m200.778 97.833c11.748 0 21.306-9.558 21.306-21.306s-9.558-21.306-21.306-21.306-21.306 9.558-21.306 21.306 9.558 21.306 21.306 21.306zm0-27.611c3.477 0 6.306 2.829 6.306 6.306s-2.829 6.306-6.306 6.306-6.306-2.829-6.306-6.306 2.829-6.306 6.306-6.306z"/><path d="m277.306 76.528c0-11.748-9.558-21.306-21.306-21.306s-21.306 9.558-21.306 21.306 9.558 21.305 21.306 21.305 21.306-9.557 21.306-21.305zm-27.612 0c0-3.477 2.829-6.306 6.306-6.306s6.306 2.829 6.306 6.306-2.829 6.306-6.306 6.306-6.306-2.829-6.306-6.306z"/><path d="m332.528 76.528c0-11.748-9.558-21.306-21.306-21.306s-21.305 9.558-21.305 21.306 9.558 21.306 21.305 21.306c11.748-.001 21.306-9.558 21.306-21.306zm-27.611 0c0-3.477 2.829-6.306 6.305-6.306 3.477 0 6.306 2.829 6.306 6.306s-2.829 6.306-6.306 6.306c-3.476-.001-6.305-2.829-6.305-6.306z"/><path d="m366.434 310.635c7.218 0 14.004-2.811 19.108-7.915 2.929-2.929 2.929-7.678 0-10.606-2.929-2.929-7.678-2.929-10.606 0-2.271 2.271-5.291 3.521-8.502 3.521-3.212 0-6.231-1.25-8.502-3.521-2.929-2.929-7.678-2.929-10.606 0-2.929 2.929-2.929 7.678 0 10.606 5.103 5.104 11.889 7.915 19.108 7.915z"/><path d="m409.001 161.95-15.693-20.925c-2.486-3.314-7.187-3.985-10.5-1.5s-3.985 7.186-1.5 10.5l15.694 20.925c5.295 7.06 11.849 12.884 19.479 17.31 3.941 2.286 7.737 4.949 11.282 7.916 3.163 2.646 7.895 2.251 10.565-.94 2.658-3.177 2.237-7.907-.94-10.565-4.2-3.514-8.702-6.671-13.38-9.385-5.878-3.411-10.927-7.897-15.007-13.336z"/><path d="m448.624 370.302-23.358-6.674c-2.159-.617-4.215-1.776-5.92-3.489h10.271c23.462 0 45.24-11.655 58.255-31.177l8.022-12.032c1.741-2.612 1.902-5.954.42-8.721-1.481-2.767-4.352-4.486-7.49-4.486h-5.6c-6.976 0-12.651-5.675-12.651-12.65v-90.294c0-22.47-7.044-43.869-20.372-61.882-2.464-3.33-7.16-4.032-10.49-1.568s-4.032 7.16-1.568 10.49c11.403 15.413 17.431 33.726 17.431 52.96v90.294c0 13.151 9.229 24.187 21.549 26.972l-1.731 2.598c-10.227 15.339-27.338 24.498-45.774 24.498h-14.258v-15.366c18.009-13.752 30.146-34.915 31.686-59.056l.51-7.999c1.697-26.601-13.25-52.556-36.092-65.808-8.799-5.105-16.356-11.82-22.461-19.96l-15.693-20.925c-1.613-2.151-4.182-3.437-6.873-3.437-2.688 0-5.257 1.283-6.874 3.437l-15.693 20.925c-6.105 8.141-13.662 14.856-22.461 19.96-21.902 12.706-37.84 38.246-36.083 65.783l.512 8.023c1.54 24.14 13.677 45.303 31.686 59.056v15.367h-14.27c-18.436 0-35.548-9.158-45.774-24.498l-1.731-2.597c12.321-2.786 21.549-13.821 21.549-26.972 0-10.13 0-79.341 0-90.294 0-16.588 4.537-32.627 13.156-46.632h61.099c4.736 0 8.59-3.854 8.59-8.59v-33.697c18.602-1.297 37.488 3.159 53.882 13.53 3.515 2.225 8.144 1.156 10.348-2.328 2.215-3.5 1.172-8.133-2.328-10.348-18.429-11.659-40.017-17.196-61.901-15.885v-88.24c0-4.736-3.854-8.59-8.59-8.59h-191.103c-4.736 0-8.59 3.854-8.59 8.59v54.132c0 4.142 3.358 7.5 7.5 7.5s7.5-3.358 7.5-7.5v-47.722h178.278v124.146c-65.257 0 76.433 0-116.75 0-5.219 0-7.103 4.055-10.37 6.812-.067.065-.133.131-.198.198l-23.801 23.801v-22.22c0-4.736-3.854-8.59-8.59-8.59h-18.57v-41.423c0-4.142-3.358-7.5-7.5-7.5s-7.5 3.358-7.5 7.5v13.024c-20.906 1.794-40.089 11.077-54.645 26.592-16.28 17.353-24.412 39.987-22.896 63.733.112 1.757.247 3.87.382 5.997h-7.159c-14.406 0-26.125 11.72-26.125 26.126 0 22.237 16.545 40.682 37.971 43.674 2.706 19.376 12.221 36.889 27.196 49.823 2.456 2.121 3.864 5.104 3.864 8.187v7.834c0 10.377-7.049 19.629-17.335 22.201l-2.196.549c-4.019 1.005-6.461 5.077-5.456 9.096 1.006 4.019 5.079 6.463 9.096 5.456l2.196-.549c2.116-.529 4.177-1.237 6.161-2.116 32.63 13.822 80.063 13.91 112.899-.003 1.987.88 4.05 1.589 6.168 2.119 49.766 12.442 45.687 11.415 46.588 11.663 20.163 5.568 34.324 23.486 35.128 44.335.056 1.451.037-.308.037 61.519h-40.236v-20.097c0-4.142-3.358-7.5-7.5-7.5s-7.5 3.358-7.5 7.5v20.097h-178.273v-20.097c0-4.142-3.358-7.5-7.5-7.5s-7.5 3.358-7.5 7.5v20.097h-40.225v-59.644c0-22.041 14.934-41.167 36.317-46.513l9.39-2.348c4.019-1.004 6.461-5.077 5.457-9.095s-5.078-6.463-9.095-5.457l-9.389 2.348c-28.074 7.017-47.68 32.128-47.68 61.064v65.953c0 4.792 3.898 8.69 8.69 8.69 450.569 0 440.194.018 440.585.018.087 0 .173-.002.259-.005l53.957.005c4.692 0 8.509-3.817 8.509-8.51v-49.167c0-38.609-25.6-73.226-63.376-84.021zm-392.206-137.107c0-6.135 4.991-11.126 11.125-11.126h8.112c.103 1.624 1.152 18.209 2.117 33.437.127 1.988.351 3.963.669 5.917-12.636-3.168-22.023-14.622-22.023-28.228zm244.386 36.567-.512-8.023c-1.382-21.66 11.533-41.929 28.64-51.854 10.552-6.121 19.614-14.174 26.935-23.935l10.566-14.089 10.567 14.089c7.32 9.761 16.382 17.813 26.934 23.935 17.69 10.263 29.998 30.74 28.65 51.878l-.51 7.999c-2.203 34.531-31.033 61.58-65.635 61.58s-63.432-27.049-65.635-61.58zm110.635 103.368c-6.651 16.052-24.687 27.231-45.006 27.231-20.316 0-38.351-11.176-45.004-27.225 14.905-11.575 10.241-28.519 11.091-34.289 21.477 9.994 46.347 10.001 67.837 0 .843 5.777-3.805 22.713 11.082 34.283zm-171.146-111.706c.297-1.824.512-3.665.643-5.518.78-11.098 1.609-24.136 2.211-33.836h8.044c18.548-.001 13.16 33.321-10.898 39.354zm32.999-107.278c-13.752 27.403-10.556 50.601-10.998 55.403-7.48-3.527-13.187-2.177-18.235-2.479 1.059-17.687.618-33.579-10.235-52.924zm-180.549 100.405c-.086-1.354-3.351-52.943-3.453-54.433-1.249-19.566 5.452-38.217 18.866-52.515 11.686-12.457 26.993-20.038 43.705-21.786v19.739c0 4.736 3.854 8.59 8.59 8.59h18.57v31.286c0 3.486 2.082 6.602 5.303 7.936 3.245 1.345 6.916.583 9.361-1.862l28.095-28.094c5.853 11.253 8.49 23.781 7.665 36.707-1.254 20.474-2.033 34.275-3.472 54.736-.888 12.627-6.981 24.522-16.658 32.585-.027.022-.055.044-.082.067-28.901 24.08-70.852 24.078-99.752-.003-9.823-8.187-15.924-20.197-16.738-32.953zm109.601 60.789c-5.757 4.973-9.059 12.094-9.059 19.54v7.834c0 8.802 3.086 17.208 8.473 23.862-25.596 8.229-59.148 8.243-84.785.003 5.389-6.655 8.476-15.062 8.476-23.866v-7.834c0-7.445-3.302-14.567-9.059-19.539-4.149-3.583-7.783-7.599-10.86-11.958 32.175 22.902 75.494 22.94 107.681-.012-3.077 4.365-6.714 8.383-10.867 11.97zm81.914 54.961c-5.023 1.435-9.922 3.322-14.599 5.623l-44.039-11.01c-10.377-2.595-17.334-11.922-17.334-22.201v-7.834c0-3.083 1.408-6.067 3.863-8.187 14.978-12.936 24.493-30.451 27.197-49.823 8.72-1.218 16.632-4.995 22.948-10.546v24.749c0 6.976-5.675 12.65-12.65 12.65h-5.6c-3.14 0-6.01 1.72-7.491 4.488s-1.319 6.111.422 8.72l8.021 12.031c13.015 19.522 34.792 31.178 58.255 31.178h10.281c-1.612 1.618-3.636 2.838-5.921 3.489zm5.506 14.027 17.952-5.129c9.069 21.353 32.502 36.163 58.718 36.163s49.649-14.812 58.719-36.166l19.35 5.529c3.708 1.06 7.321 2.412 10.801 4.038-13.89 31.507-49.447 53.015-88.87 53.015-16.997 0-33.529-3.893-48.069-11.288-2.076-19.159-12.77-36.032-28.601-46.162zm207.236 112.672-40.224-.004v-20.093c0-4.142-3.358-7.5-7.5-7.5s-7.5 3.358-7.5 7.5v20.091l-123.042-.011v-49.782c14.805 6.291 31.071 9.577 47.699 9.577 24.007 0 46.817-6.701 65.965-19.379 15.842-10.489 28.309-24.764 35.833-40.846 17.93 13.562 28.768 34.989 28.768 57.77v42.677z"/></g></svg>