<svg id="Capa_1" enable-background="new 0 0 511.98 511.98" height="512" viewBox="0 0 511.98 511.98" width="512" xmlns="http://www.w3.org/2000/svg"><g><path d="m196.223 199.802c1.919 0 3.839-.732 5.303-2.197 11.062-11.062 29.063-11.062 40.126 0 2.929 2.93 7.678 2.929 10.606 0 2.929-2.929 2.929-7.678 0-10.606-16.911-16.911-44.428-16.911-61.339 0-2.929 2.929-2.929 7.678 0 10.606 1.465 1.464 3.385 2.197 5.304 2.197z"/><path d="m137.223 186.999c-16.911-16.911-44.428-16.911-61.339 0-2.929 2.929-2.929 7.678 0 10.606 2.929 2.929 7.678 2.929 10.606 0 11.062-11.062 29.063-11.062 40.126 0 1.464 1.464 3.384 2.197 5.303 2.197s3.839-.732 5.303-2.197c2.931-2.929 2.931-7.678.001-10.606z"/><path d="m293.848 192.962c.091 0 .182-.001.273-.005 4.14-.148 7.375-3.624 7.227-7.764-.003-.083-.125-8.535 6.13-14.79 2.929-2.929 2.929-7.677 0-10.606-2.928-2.929-7.677-2.929-10.606 0-10.921 10.921-10.536 25.325-10.514 25.933.144 4.048 3.471 7.232 7.49 7.232z"/><path d="m183.099 250.646c-10.493 10.492-27.565 10.491-38.056 0-2.929-2.929-7.678-2.929-10.606 0-2.929 2.929-2.929 7.678 0 10.606 8.171 8.171 18.901 12.255 29.634 12.255 10.73 0 21.465-4.086 29.634-12.255 2.929-2.929 2.929-7.677 0-10.606-2.927-2.929-7.676-2.929-10.606 0z"/><path d="m362.23 197.45c0-51.701-25.829-99.527-69.09-127.935-24.927-16.375-53.93-25.031-83.875-25.031-45.203 0-87.849 19.841-117 54.434-23.192 27.508-35.965 62.5-35.965 98.532 0 40.04 15.37 77.898 43.278 106.604 27.851 28.646 65.148 45.082 104.994 46.277 1.472.05 3.007.074 4.694.074 84.344 0 152.964-68.615 152.964-152.955zm-15 0c0 74.731-59.735 135.769-133.967 137.893.016-.513.042-1.025.042-1.538v-5.846c21.242-8.377 40.043-22.083 54.623-39.872 14.89-18.167 24.699-39.804 28.533-62.842 24.298-8.604 40.871-31.726 40.871-57.875 0-11.354-4.422-22.021-12.442-30.028-7.202-7.212-16.546-11.502-26.606-12.302v-28.13c0-1.65-.036-3.301-.096-4.95 30.966 26.074 49.042 64.424 49.042 105.49zm-236.898 96.148c-25.171-25.889-39.033-60.035-39.033-96.147 0-32.498 11.519-64.057 32.434-88.864 6.031-7.156 12.708-13.603 19.9-19.304 5.182 7.794 15.161 20.003 32.077 30.903 1.257.81 2.664 1.196 4.056 1.196 2.464 0 4.877-1.213 6.312-3.438 2.244-3.482 1.24-8.124-2.242-10.367-15.107-9.734-23.77-20.628-27.942-26.969 21.734-13.664 47.07-21.122 73.371-21.122 25.9 0 51.005 7.194 72.841 20.802.766 5.473 1.177 11.046 1.177 16.624v29.045c-34.103 4.89-64.188 3.358-89.511-4.563-3.952-1.237-8.16.965-9.397 4.918s.965 8.161 4.918 9.397c17.122 5.356 36.12 8.039 56.803 8.039 14.298 0 29.405-1.288 45.247-3.854h3.499c7.348 0 14.249 2.858 19.44 8.058 5.19 5.182 8.048 12.079 8.048 19.421 0 21.04-14.193 39.486-34.515 44.857-2.948.779-5.131 3.266-5.521 6.29-2.85 22.042-11.83 42.811-25.968 60.062-13.969 17.044-32.293 29.868-52.99 37.084-3.013 1.051-5.031 3.892-5.031 7.082v11.06c0 .388-.018.777-.032 1.165-33.393-2.628-64.405-17.168-87.941-41.375z"/><path d="m484.676 28.867c-9.962-9.963-23.207-15.45-37.293-15.45-13.557 0-26.333 5.082-36.155 14.344-9.822-9.263-22.598-14.344-36.155-14.344-14.087 0-27.331 5.487-37.296 15.453-3.489 3.493-6.416 7.395-8.763 11.587-34.267-26.15-76.402-40.457-119.741-40.457-52.663 0-102.136 20.34-139.306 57.273-37.172 36.936-57.822 86.276-58.144 138.93-.526 84.868 52.995 160.415 133.178 187.988 10.792 3.716 17.452 14.647 15.837 25.99l-3.16 22.16c-.585 4.101 2.265 7.899 6.366 8.484.359.051.715.076 1.068.076 3.673 0 6.882-2.701 7.416-6.442l3.161-22.162c2.627-18.451-8.225-36.236-25.806-42.29-74.093-25.478-123.547-95.287-123.06-173.711.297-48.665 19.374-94.259 53.716-128.382 34.341-34.122 80.06-52.914 128.734-52.914 41.567 0 81.935 14.237 114.212 40.174-.754 3.574-1.152 7.249-1.152 10.986 0 14.077 5.485 27.32 15.447 37.293l48.1 48.099c3.865 14.912 5.844 30.339 5.844 45.897 0 77.882-49.446 147.224-123.043 172.549-17.592 6.061-28.439 23.963-25.792 42.571l5.6 39.204c1.616 11.381-1.777 22.885-9.31 31.563-7.525 8.67-18.425 13.642-29.905 13.642-18.469 0-34.33-12.543-38.57-30.504-.952-4.031-4.993-6.524-9.023-5.576-4.031.952-6.527 4.991-5.576 9.022 5.847 24.763 27.71 42.057 53.169 42.057 15.828 0 30.856-6.856 41.232-18.81 10.383-11.962 15.061-27.819 12.833-43.511l-5.6-39.206c-1.636-11.5 5.021-22.549 15.825-26.271 79.647-27.407 133.16-102.449 133.16-186.732 0-11.38-.986-22.697-2.907-33.826 2.393.61 4.878.927 7.412.927 7.965 0 15.455-3.103 21.088-8.737l39.99-39.99c2.929-2.929 2.929-7.678 0-10.606-2.929-2.929-7.678-2.929-10.606 0l-39.99 39.99c-2.801 2.801-6.523 4.343-10.482 4.343-3.958 0-7.681-1.542-10.481-4.343l-52.359-52.355c-7.129-7.138-11.056-16.617-11.056-26.69s3.926-19.552 11.053-26.687c7.129-7.129 16.607-11.056 26.687-11.056s19.557 3.927 26.693 11.063l4.17 4.159c2.929 2.923 7.673 2.919 10.6-.006l4.16-4.16c7.129-7.129 16.607-11.056 26.687-11.056s19.558 3.927 26.687 11.056c10.874 10.874 14.07 27.067 8.143 41.255-1.597 3.822.207 8.215 4.029 9.812 3.821 1.596 8.214-.207 9.812-4.029 8.282-19.824 3.816-42.451-11.378-57.644z"/></g></svg>