<?xml version="1.0" encoding="UTF-8"?>
<svg xmlns="http://www.w3.org/2000/svg" xmlns:xlink="http://www.w3.org/1999/xlink" version="1.1" id="Capa_1" x="0px" y="0px" viewBox="0 0 512 512" style="enable-background:new 0 0 512 512;" xml:space="preserve" width="512" height="512">
<g>
	<path style="fill:none;stroke:#000000;stroke-width:20;stroke-linecap:round;stroke-linejoin:round;stroke-miterlimit:10;" d="&#10;&#9;&#9;M183.546,359.763c-4.98,5.076-7.938,14.643-7.938,22.069c0,22.2,17.997,40.196,40.196,40.196h0c22.2,0,40.196-17.997,40.196-40.196&#10;&#9;&#9;V130.418c0-22.338-18.109-40.447-40.447-40.447h0c-16.008,0-30.51,9.441-36.988,24.08l-3.65,8.248"/>
	<path style="fill:none;stroke:#000000;stroke-width:20;stroke-linecap:round;stroke-linejoin:round;stroke-miterlimit:10;" d="&#10;&#9;&#9;M178.563,398.329c-7.409,3.699-15.767,5.779-24.611,5.779c-30.472,0-55.174-24.702-55.174-55.174&#10;&#9;&#9;c0-10.375,2.864-20.081,7.844-28.371"/>
	<path style="fill:none;stroke:#000000;stroke-width:20;stroke-linecap:round;stroke-linejoin:round;stroke-miterlimit:10;" d="&#10;&#9;&#9;M121.491,186.992c-2.677-5.884-4.169-12.422-4.169-19.308c0-25.776,20.896-46.672,46.672-46.672&#10;&#9;&#9;c16.007,0,30.131,8.058,38.539,20.338"/>
	<path style="fill:none;stroke:#000000;stroke-width:20;stroke-linecap:round;stroke-linejoin:round;stroke-miterlimit:10;" d="&#10;&#9;&#9;M133.557,186.443C95.142,186.443,64,217.585,64,256s31.142,69.557,69.557,69.557"/>
	<path style="fill:none;stroke:#000000;stroke-width:20;stroke-linecap:round;stroke-linejoin:round;stroke-miterlimit:10;" d="&#10;&#9;&#9;M328.454,359.763c4.98,5.076,7.938,14.643,7.938,22.069c0,22.2-17.996,40.196-40.196,40.196h0c-22.2,0-40.196-17.997-40.196-40.196&#10;&#9;&#9;V130.418c0-22.338,18.109-40.447,40.447-40.447h0c16.008,0,30.51,9.441,36.988,24.08l3.65,8.248"/>
	<path style="fill:none;stroke:#000000;stroke-width:20;stroke-linecap:round;stroke-linejoin:round;stroke-miterlimit:10;" d="&#10;&#9;&#9;M333.437,398.329c7.409,3.699,15.767,5.779,24.611,5.779c30.472,0,55.174-24.702,55.174-55.174c0-10.375-2.864-20.081-7.844-28.371&#10;&#9;&#9;"/>
	<path style="fill:none;stroke:#000000;stroke-width:20;stroke-linecap:round;stroke-linejoin:round;stroke-miterlimit:10;" d="&#10;&#9;&#9;M390.509,186.992c2.677-5.884,4.168-12.422,4.168-19.308c0-25.776-20.896-46.672-46.672-46.672&#10;&#9;&#9;c-16.007,0-30.131,8.058-38.539,20.338"/>
	<path style="fill:none;stroke:#000000;stroke-width:20;stroke-linecap:round;stroke-linejoin:round;stroke-miterlimit:10;" d="&#10;&#9;&#9;M433.465,298.558c-12.723,16.426-32.638,27-55.023,27"/>
	<path style="fill:none;stroke:#000000;stroke-width:20;stroke-linecap:round;stroke-linejoin:round;stroke-miterlimit:10;" d="&#10;&#9;&#9;M378.443,186.443c22.37,0,42.274,10.56,54.998,26.968"/>
	<path style="fill:none;stroke:#000000;stroke-width:20;stroke-linecap:round;stroke-linejoin:round;stroke-miterlimit:10;" d="&#10;&#9;&#9;M377.68,268.804c-14.143,0-25.608-11.465-25.608-25.608"/>
	<path style="fill:none;stroke:#000000;stroke-width:20;stroke-linecap:round;stroke-linejoin:round;stroke-miterlimit:10;" d="&#10;&#9;&#9;M208.704,324.646c-4.602-6.812-12.395-11.29-21.234-11.29"/>
	<path style="fill:none;stroke:#000000;stroke-width:20;stroke-linecap:round;stroke-linejoin:round;stroke-miterlimit:10;" d="&#10;&#9;&#9;M303.55,324.646c4.602-6.812,12.395-11.29,21.234-11.29"/>
	<path style="fill:none;stroke:#000000;stroke-width:20;stroke-linecap:round;stroke-linejoin:round;stroke-miterlimit:10;" d="&#10;&#9;&#9;M134.32,268.804c14.143,0,25.608-11.465,25.608-25.608"/>
	<path style="fill:none;stroke:#000000;stroke-width:20;stroke-linecap:round;stroke-linejoin:round;stroke-miterlimit:10;" d="&#10;&#9;&#9;M327.267,186.443c0,13.238-10.732,23.97-23.97,23.97"/>
	<path style="fill:none;stroke:#000000;stroke-width:20;stroke-linecap:round;stroke-linejoin:round;stroke-miterlimit:10;" d="&#10;&#9;&#9;M256,243.196c0,13.238,10.859,23.97,24.097,23.97"/>
	<path style="fill:none;stroke:#000000;stroke-width:20;stroke-linecap:round;stroke-linejoin:round;stroke-miterlimit:10;" d="&#10;&#9;&#9;M256,243.196c0,13.238-10.605,23.97-23.843,23.97"/>
	<path style="fill:none;stroke:#000000;stroke-width:20;stroke-linecap:round;stroke-linejoin:round;stroke-miterlimit:10;" d="&#10;&#9;&#9;M184.734,186.443c0,13.238,10.732,23.97,23.97,23.97"/>
	
		<polyline style="fill:none;stroke:#000000;stroke-width:20;stroke-linecap:round;stroke-linejoin:round;stroke-miterlimit:10;" points="&#10;&#9;&#9;402.055,10 371.772,42.49 400.847,46.655 370.896,84.315 &#9;"/>
	
		<polyline style="fill:none;stroke:#000000;stroke-width:20;stroke-linecap:round;stroke-linejoin:round;stroke-miterlimit:10;" points="&#10;&#9;&#9;109.945,10 140.228,42.49 111.153,46.655 141.104,84.315 &#9;"/>
	
		<polyline style="fill:none;stroke:#000000;stroke-width:20;stroke-linecap:round;stroke-linejoin:round;stroke-miterlimit:10;" points="&#10;&#9;&#9;502,99.148 461.671,118.357 487.109,133.043 445.294,156.852 &#9;"/>
	
		<polyline style="fill:none;stroke:#000000;stroke-width:20;stroke-linecap:round;stroke-linejoin:round;stroke-miterlimit:10;" points="&#10;&#9;&#9;10,99.148 50.329,118.357 24.891,133.043 66.706,156.852 &#9;"/>
	
		<polyline style="fill:none;stroke:#000000;stroke-width:20;stroke-linecap:round;stroke-linejoin:round;stroke-miterlimit:10;" points="&#10;&#9;&#9;384.326,502 361.47,477.217 383.414,474.073 360.809,445.65 &#9;"/>
	
		<polyline style="fill:none;stroke:#000000;stroke-width:20;stroke-linecap:round;stroke-linejoin:round;stroke-miterlimit:10;" points="&#10;&#9;&#9;502,394.376 468.046,378.204 489.463,365.839 454.257,345.793 &#9;"/>
	
		<polyline style="fill:none;stroke:#000000;stroke-width:20;stroke-linecap:round;stroke-linejoin:round;stroke-miterlimit:10;" points="&#10;&#9;&#9;10,394.376 43.954,378.204 22.537,365.839 57.743,345.793 &#9;"/>
	
		<polyline style="fill:none;stroke:#000000;stroke-width:20;stroke-linecap:round;stroke-linejoin:round;stroke-miterlimit:10;" points="&#10;&#9;&#9;127.674,502 150.53,477.217 128.586,474.073 151.191,445.65 &#9;"/>
	
		<line style="fill:none;stroke:#000000;stroke-width:20;stroke-linecap:round;stroke-linejoin:round;stroke-miterlimit:10;" x1="448" y1="256" x2="448" y2="256"/>
</g>















</svg>
