<svg height="511pt" viewBox="-16 0 511 511.99998" width="511pt" xmlns="http://www.w3.org/2000/svg"><path d="m53.609375 231.027344-26.917969 22.304687c-3.1875 2.640625-3.632812 7.371094-.988281 10.5625 2.640625 3.1875 7.371094 3.628907 10.5625.988281l26.914063-22.304687c3.1875-2.644531 3.632812-7.371094.988281-10.5625-2.640625-3.191406-7.371094-3.632813-10.558594-.988281zm0 0"/><path d="m63.179688 91.476562-26.917969-22.304687c-3.1875-2.644531-7.914063-2.203125-10.558594.988281-2.644531 3.1875-2.199219 7.917969.988281 10.5625l26.914063 22.304688c3.191406 2.644531 7.921875 2.195312 10.5625-.988282 2.644531-3.191406 2.199219-7.921874-.988281-10.5625zm0 0"/><path d="m.5 167.027344c0 4.140625 3.355469 7.5 7.5 7.5h32.171875c4.144531 0 7.5-3.359375 7.5-7.5 0-4.144532-3.355469-7.5-7.5-7.5h-32.171875c-4.144531 0-7.5 3.355468-7.5 7.5zm0 0"/><path d="m415.652344 232.015625c-2.640625 3.191406-2.199219 7.917969.992187 10.5625l26.914063 22.304687c3.191406 2.644532 7.921875 2.195313 10.5625-.988281 2.640625-3.191406 2.199218-7.917969-.992188-10.5625l-26.914062-22.304687c-3.1875-2.640625-7.917969-2.203125-10.5625.988281zm0 0"/><path d="m454.121094 70.160156c-2.644532-3.1875-7.375-3.632812-10.5625-.988281l-26.914063 22.304687c-3.191406 2.640626-3.632812 7.371094-.992187 10.5625 2.644531 3.1875 7.375 3.628907 10.5625.988282l26.914062-22.304688c3.191406-2.644531 3.632813-7.371094.992188-10.5625zm0 0"/><path d="m479.320312 167.027344c0-4.144532-3.355468-7.5-7.5-7.5h-32.171874c-4.140626 0-7.5 3.355468-7.5 7.5 0 4.140625 3.359374 7.5 7.5 7.5h32.171874c4.144532 0 7.5-3.359375 7.5-7.5zm0 0"/><path d="m407.636719 185.261719c.40625-4.121094-2.605469-7.792969-6.730469-8.199219-4.117188-.402344-7.792969 2.605469-8.199219 6.730469-3.636719 36.941406-20.171875 70.589843-46.90625 95.972656-3.828125-2.546875-6.695312-3.769531-7.125-3.949219-.046875-.019531-.097656-.039062-.144531-.058594-54.851562-21.238281-46.757812-18.105468-64.835938-25.109374v-13.191407c10.171876-8.210937 17.304688-20.035156 19.414063-33.507812 12.324219-2.320313 22.398437-12.503907 22.398437-25.042969 0-5.574219-2.007812-10.917969-5.703124-15.34375v-20.46875c0-38.867188-31.621094-70.488281-70.488282-70.488281-38.867187 0-70.488281 31.621093-70.488281 70.488281v20.921875c-3.691406 4.347656-5.699219 9.550781-5.699219 14.890625 0 12.4375 9.953125 22.71875 22.4375 25.050781 2.136719 13.152344 9.246094 25.777344 20.488282 34.367188v12.328125c-1.976563.765625-62.433594 24.207031-64.765626 25.109375-.046874.019531-.09375.035156-.140624.054687-.433594.179688-3.296876 1.398438-7.121094 3.945313-30.589844-29.078125-47.832032-69.160157-47.675782-111.773438.316407-86.171875 72.640626-155.839843 158.90625-152.898437 75.101563 2.566406 138.359376 60.738281 147.140626 135.3125.484374 4.113281 4.21875 7.046875 8.324218 6.570312 4.117188-.480468 7.058594-4.210937 6.574219-8.324218-9.652344-81.992188-78.0625-145.695313-161.527344-148.5507818-94.507812-3.2265622-174.070312 72.9648438-174.417969 167.8359378-.191406 52.550781 23.597657 100.125 62.558594 131.675781 10.601563 8.585937 16.679688 21.519531 16.679688 35.484375v24.898438c-8.878906 2.25-15.476563 10.285156-15.476563 19.851562v9.378906c0 4.933594 1.75 9.460938 4.664063 13.003906-2.914063 3.539063-4.664063 8.066407-4.664063 13v9.378907c0 11.304687 9.195313 20.5 20.5 20.5h6.804688c-.488281 1.753906-.769531 3.59375-.769531 5.5v9.382812c0 11.304688 9.195312 20.5 20.5 20.5h32.574218v9.636719c0 12.0625 9.8125 21.875 21.871094 21.875h6.636719c12.058593 0 21.871093-9.8125 21.871093-21.875v-9.636719h32.574219c11.304688 0 20.5-9.195312 20.5-20.5v-9.382812c0-1.90625-.28125-3.746094-.773437-5.5h6.808594c11.304687 0 20.5-9.195313 20.5-20.5v-9.378907c0-4.933593-1.75-9.460937-4.664063-13 2.914063-3.542968 4.664063-8.070312 4.664063-13.003906v-9.378906c0-9.566406-6.597657-17.605469-15.480469-19.851562v-24.429688c0-2.667969.21875-5.296875.640625-7.871094 2.605468-15.828125 10.742187-23.511718 18.855468-30.421875 33.703126-28.484375 54.589844-68.128906 58.910157-112.007812zm-113.875 2.828125v-18.363282c3.6875 1.742188 6.746093 5.144532 6.746093 9.179688 0 4.023438-3.058593 7.460938-6.746093 9.183594zm-54.445313-100.484375c30.597656 0 55.488282 24.890625 55.488282 55.488281v11.144531c-.035157-.007812-.976563-.226562-1.058594-.242187-.121094-3.261719-1.460938-5.125-4.386719-8.429688-2.253906-2.550781-5.894531-6.339844-13.53125-14.546875-3.925781-4.21875-10.269531-4.984375-15.078125-1.839843-18.164062 11.863281-41.078125 18.554687-62.984375 17.042968-3.636719-.25-6.765625.917969-9.113281 3.097656-.886719.664063-2.449219 2.832032-3.136719 4.820313-.566406.125-1.128906.261719-1.6875.417969v-11.464844c0-30.597656 24.890625-55.488281 55.488281-55.488281zm-61.1875 91.300781c0-3.820312 3.34375-6.992188 6.746094-8.714844v17.898438c-3.703125-1.730469-6.746094-5.171875-6.746094-9.183594zm21.746094 16.695312v-34.238281c22.535156.847657 46.609375-5.636719 66.792969-18.167969 6.402343 6.863282 10.394531 11.046876 12.09375 13v39.40625c0 26.054688-25.328125 45.253907-51.96875 36.769532-16.746094-5.371094-26.917969-20.992188-26.917969-36.769532zm-53.054688 94.101563 47.429688-18.386719c15.4375 17.007813 17.574219 19.777344 24.488281 23.65625 3.613281 2.03125 8.183594.746094 10.210938-2.867187 2.027343-3.613281.746093-8.183594-2.867188-10.210938-4.574219-2.570312-5.867187-4.355469-16.839843-16.386719 1.878906-.730468 1.050781-.410156 3.542968-1.375 9.265625-3.59375 8.269532-12.410156 8.269532-17.816406 12.625 4.308594 26.453124 3.894532 37.640624-.296875 0 6.015625-.550781 9.703125 2.726563 13.949219 2.511719 3.253906 5.148437 4.011719 8.265625 5.214844-11.320312 12.421875-12.332031 13.773437-16.207031 16.160156-3.523438 2.167969-4.625 6.789062-2.457031 10.316406 2.175781 3.527344 6.792968 4.628906 10.320312 2.457032 5.824219-3.582032 7.375-5.535157 23.339844-23.125l48.300781 18.707031c.125.054687.457031.207031.949219.457031-12.636719 11.609375-19.703125 28.125-19.703125 45.40625v23.78125h-148.636719v-24.25c0-16.917969-6.835938-33.046875-19.265625-44.542969-.140625-.132812-.273437-.269531-.414063-.398437-.003906-.003906-.003906-.003906-.007812-.007813.496094-.25.816406-.394531.914062-.441406zm103.28125 200.421875c0 3.789062-3.082031 6.875-6.875 6.875h-6.632812c-3.789062 0-6.871094-3.085938-6.871094-6.875v-9.636719h20.378906zm53.070313-39.519531v9.382812c0 3.03125-2.464844 5.5-5.5 5.5-12.375 0-103.375 0-115.523437 0-3.03125 0-5.5-2.46875-5.5-5.5v-9.382812c0-3.03125 2.46875-5.5 5.5-5.5h115.523437c3.035156 0 5.5 2.46875 5.5 5.5zm26.539063-26c0 3.035156-2.46875 5.5-5.5 5.5-4.667969 0-163.847657 0-168.597657 0-3.03125 0-5.5-2.464844-5.5-5.5v-9.378907c0-3.035156 2.46875-5.5 5.5-5.5h168.597657c3.03125 0 5.5 2.464844 5.5 5.5zm0-35.382813c0 3.035156-2.46875 5.503906-5.5 5.503906h-168.597657c-3.03125 0-5.5-2.46875-5.5-5.503906v-9.378906c0-3.03125 2.46875-5.5 5.5-5.5h168.597657c3.03125 0 5.5 2.46875 5.5 5.5zm0 0"/></svg>