<?xml version="1.0"?>
<svg xmlns="http://www.w3.org/2000/svg" id="b11f63a5-7422-4eaa-ad25-ff8b2d79682b" data-name="line" viewBox="0 0 64 64"><path d="M57.79541,8.87793a8.04146,8.04146,0,0,0-5.90527-2.54785H12.10986A8.10757,8.10757,0,0,0,4.01172,14.9082L5.3418,37.58887a.99985.99985,0,0,0,1.99609-.11723L6.00781,14.791a6.13651,6.13651,0,0,1,6.10211-6.46089l39.78022,0a6.13659,6.13659,0,0,1,6.102,6.461l-2.06,35.12788a6.128,6.128,0,0,1-6.102,5.751H14.16992a6.12766,6.12766,0,0,1-6.102-5.748l-.5-8.4502a.99986.99986,0,0,0-1.99608.11723l.5,8.45308a8.1305,8.1305,0,0,0,8.09814,7.62793H49.83008a8.13087,8.13087,0,0,0,8.09814-7.63086L59.98828,14.9082A8.01966,8.01966,0,0,0,57.79541,8.87793Z"/><path d="M14.33984,11.44043H13a3.78771,3.78771,0,0,0-3.77779,3.99808L11.19189,49.001a3.79277,3.79277,0,0,0,3.77832,3.55859H49.02979A3.793,3.793,0,0,0,52.80811,48.999l1.96972-33.55371A3.78815,3.78815,0,0,0,51,11.44047c-1.41023-.06212-2.97566.0122-4.00093,1.11629l-4.28029,4.21082a1.00011,1.00011,0,0,0,1.40238,1.42574l4.27926-4.20992c.60924-.69441,1.78272-.52884,2.59966-.54294a1.77815,1.77815,0,0,1,1.78167,1.88084L50.812,48.87988a1.79006,1.79006,0,0,1-1.78222,1.67969H14.97021A1.7898,1.7898,0,0,1,13.188,48.88184L11.21826,15.31445A1.778,1.778,0,0,1,13,13.44045c.85409.01612,2.03324-.16471,2.66743.541L29.52051,27.6543a3.57157,3.57157,0,0,0,4.97021,0L40.12061,22.124a1.00048,1.00048,0,0,0-1.40142-1.42768l-5.62886,5.52925a1.556,1.556,0,0,1-2.16748.00293L17.07031,12.55566A3.87734,3.87734,0,0,0,14.33984,11.44043Z"/><path d="M35.04541,15.43945a.99936.99936,0,0,0,1.41016.10352l.58783-.50745c.53357.75165.45374,2.43073,1.76766,2.16174a.9994.9994,0,0,0,.74216-1.20312,7.76185,7.76185,0,0,0-15.09961,0,.99941.99941,0,0,0,.74219,1.20313c1.30583.2737,1.23933-1.41174,1.76746-2.16175l.588.50745a.99981.99981,0,1,0,1.30664-1.51367l-.64722-.55854a5.71813,5.71813,0,0,1,2.79273-1.34967v.56446a1,1,0,0,0,2,0v-.5644a5.718,5.718,0,0,1,2.79248,1.34961l-.647.55854A.99978.99978,0,0,0,35.04541,15.43945Z"/></svg>
